<svg width="55" height="55" viewBox="0 0 55 55" fill="none" xmlns="http://www.w3.org/2000/svg">
<path d="M25.8213 12.9351C26.673 14.2994 27.1719 15.9436 27.1719 17.7116C27.1719 22.4322 23.631 26.2571 19.2627 26.2571C16.1689 26.2571 13.4889 24.3358 12.1899 21.5394" stroke="white" stroke-width="2.75" stroke-miterlimit="10" stroke-linecap="round" stroke-linejoin="round"/>
<path d="M12.1906 21.5396C11.6552 20.3875 11.354 19.088 11.354 17.7119C11.354 12.9913 14.8949 9.1665 19.2633 9.1665C21.995 9.1665 24.4013 10.6605 25.8219 12.9353" stroke="#81C1EA" stroke-width="2.75" stroke-miterlimit="10" stroke-linecap="round" stroke-linejoin="round"/>
<path d="M13.0879 45.6055H26.6553C36.91 46.3098 36.2986 41.2856 36.2986 41.2856C36.1617 37.4401 32.8215 35.0267 29.1894 33.5356" stroke="white" stroke-width="2.75" stroke-miterlimit="10" stroke-linecap="round" stroke-linejoin="round"/>
<path d="M29.1891 33.5357C23.2511 31.0988 16.4947 31.0988 10.5537 33.5357C6.92148 35.0268 3.58133 37.4401 3.44444 41.2856C3.44444 41.2856 2.83299 46.3127 13.0877 45.6055" stroke="#81C1EA" stroke-width="2.75" stroke-miterlimit="10" stroke-linecap="round" stroke-linejoin="round"/>
<path d="M33.5601 15.6489H51.508" stroke="white" stroke-width="2.75" stroke-miterlimit="10" stroke-linecap="round" stroke-linejoin="round"/>
<path d="M33.5601 22.5737H41.7735" stroke="white" stroke-width="2.75" stroke-miterlimit="10" stroke-linecap="round" stroke-linejoin="round"/>
<path d="M33.5601 29.499H50.2638" stroke="#FFBE12" stroke-width="2.75" stroke-miterlimit="10" stroke-linecap="round" stroke-linejoin="round"/>
</svg>
