<svg width="55" height="55" viewBox="0 0 55 55" fill="none" xmlns="http://www.w3.org/2000/svg">
<path d="M25.8213 12.9351C26.673 14.2994 27.1719 15.9437 27.1719 17.7117C27.1719 22.4323 23.631 26.2571 19.2627 26.2571C16.1689 26.2571 13.4889 24.3359 12.1899 21.5395" stroke="#225AA7" stroke-width="2.75" stroke-miterlimit="10" stroke-linecap="round" stroke-linejoin="round"/>
<path d="M12.1906 21.5398C11.6552 20.3876 11.354 19.0881 11.354 17.7121C11.354 12.9915 14.8949 9.16669 19.2633 9.16669C21.995 9.16669 24.4013 10.6607 25.8219 12.9355" stroke="#81C1EA" stroke-width="2.75" stroke-miterlimit="10" stroke-linecap="round" stroke-linejoin="round"/>
<path d="M13.0879 45.6057H26.6553C36.91 46.31 36.2986 41.2858 36.2986 41.2858C36.1617 37.4403 32.8215 35.0269 29.1894 33.5358" stroke="#225AA7" stroke-width="2.75" stroke-miterlimit="10" stroke-linecap="round" stroke-linejoin="round"/>
<path d="M29.1891 33.536C23.2511 31.099 16.4947 31.099 10.5537 33.536C6.92148 35.027 3.58133 37.4404 3.44444 41.2858C3.44444 41.2858 2.83299 46.313 13.0877 45.6057" stroke="#81C1EA" stroke-width="2.75" stroke-miterlimit="10" stroke-linecap="round" stroke-linejoin="round"/>
<path d="M33.6875 15.8125H49.5" stroke="#225AA7" stroke-width="2.75" stroke-miterlimit="10" stroke-linecap="round" stroke-linejoin="round"/>
<path d="M33.6875 22.6875H44.6875" stroke="#225AA7" stroke-width="2.75" stroke-miterlimit="10" stroke-linecap="round" stroke-linejoin="round"/>
<path d="M33.6875 29.5625H48.125" stroke="#FFBE12" stroke-width="2.75" stroke-miterlimit="10" stroke-linecap="round" stroke-linejoin="round"/>
</svg>
