<svg width="48" height="48" viewBox="0 0 48 48" fill="none" xmlns="http://www.w3.org/2000/svg">
<path d="M24.1885 7.57812C24.9974 8.87379 25.4712 10.4353 25.4712 12.1143C25.4712 16.5974 22.1085 20.2297 17.96 20.2297C15.0219 20.2297 12.4767 18.4052 11.2432 15.7495" stroke="#225AA7" stroke-width="2.8" stroke-miterlimit="10" stroke-linecap="round" stroke-linejoin="round"/>
<path d="M11.2432 15.7504C10.7347 14.6563 10.4487 13.4222 10.4487 12.1153C10.4487 7.63231 13.8115 4 17.96 4C20.5543 4 22.8394 5.41878 24.1886 7.57914" stroke="#81C1EA" stroke-width="2.8" stroke-miterlimit="10" stroke-linecap="round" stroke-linejoin="round"/>
<path d="M27.3864 27.1425C21.7472 24.8282 15.3308 24.8282 9.6887 27.1425C6.2393 28.5585 3.06724 30.8504 2.93724 34.5024C2.93724 34.5024 1.31101 41.2468 19.6648 38.0079" stroke="#225AA7" stroke-width="2.8" stroke-miterlimit="10" stroke-linecap="round" stroke-linejoin="round"/>
<path d="M32.3843 31.2567V27.9409H39.3302V31.2567" stroke="#81C1EA" stroke-width="2.42511" stroke-miterlimit="10" stroke-linecap="round" stroke-linejoin="round"/>
<path d="M35.6585 40.4876C34.8491 40.4876 34.187 39.8256 34.187 39.0161V37.2664C34.187 36.457 34.8491 35.7949 35.6585 35.7949C36.468 35.7949 37.13 36.457 37.13 37.2664V39.0161C37.13 39.8256 36.468 40.4876 35.6585 40.4876Z" fill="#81C1EA"/>
<path d="M27.2358 36.9111H45.0331" stroke="#81C1EA" stroke-width="2.42511" stroke-miterlimit="10" stroke-linecap="round" stroke-linejoin="round"/>
<path d="M42.7464 44.6814H28.9715C27.7114 44.6814 26.6821 43.6521 26.6821 42.3948V34.2639C26.6821 33.0066 27.7114 31.9746 28.9715 31.9746H42.7464C44.0037 31.9746 45.0357 33.0038 45.0357 34.2639V42.392C45.0329 43.6521 44.0037 44.6814 42.7464 44.6814Z" stroke="#225AA7" stroke-width="2.42511" stroke-miterlimit="10" stroke-linecap="round" stroke-linejoin="round"/>
</svg>
