<svg width="48" height="48" viewBox="0 0 48 48" fill="none" xmlns="http://www.w3.org/2000/svg">
<path d="M23.3149 2.9798C18.0261 2.9798 13.7393 7.58624 13.7393 13.2695V15.66H32.8906V13.2695C32.8906 7.58624 28.6038 2.9798 23.3149 2.9798Z" stroke="#81C1EA" stroke-width="2.17" stroke-miterlimit="10" stroke-linecap="round" stroke-linejoin="round"/>
<path d="M35.2296 15.6597C36.5567 15.6597 37.6303 16.8155 37.6303 18.2394V32.2895C37.6303 35.8753 35.8022 39.1701 32.8676 40.8747L27.6349 43.9138C24.9401 45.4791 21.6921 45.4791 18.9974 43.9138L13.7646 40.8747" stroke="#81C1EA" stroke-width="2.17" stroke-miterlimit="10" stroke-linecap="round" stroke-linejoin="round"/>
<path d="M13.7627 40.8767C10.8281 39.1721 9 35.8753 9 32.2916V18.2394C9 16.8155 10.0756 15.6597 11.4007 15.6597H35.2277" stroke="#FFBE12" stroke-width="2.17" stroke-miterlimit="10" stroke-linecap="round" stroke-linejoin="round"/>
<path d="M23.1701 31.1796C25.3421 31.1796 27.1029 29.2875 27.1029 26.9534C27.1029 24.6194 25.3421 22.7273 23.1701 22.7273C20.9981 22.7273 19.2373 24.6194 19.2373 26.9534C19.2373 29.2875 20.9981 31.1796 23.1701 31.1796Z" fill="#81C1EA"/>
<path d="M23.1698 35.4074C22.1561 35.4074 21.334 34.524 21.334 33.4348V30.0527C21.334 28.9635 22.1561 28.0801 23.1698 28.0801C24.1835 28.0801 25.0056 28.9635 25.0056 30.0527V33.4348C25.0056 34.524 24.1835 35.4074 23.1698 35.4074Z" fill="#81C1EA"/>
</svg>
