<svg width="48" height="48" viewBox="0 0 48 48" fill="none" xmlns="http://www.w3.org/2000/svg">
<path d="M23.3149 2.97998C18.0261 2.97998 13.7393 7.58643 13.7393 13.2697V15.6602H32.8906V13.2697C32.8906 7.58643 28.6038 2.97998 23.3149 2.97998Z" stroke="#81C1EA" stroke-width="2.17" stroke-miterlimit="10" stroke-linecap="round" stroke-linejoin="round"/>
<path d="M35.2373 43.7871L30.0045 46.8262C27.3098 48.3915 24.0618 48.3915 21.367 46.8262L16.1343 43.7871C13.1997 42.0826 11.3716 38.7857 11.3716 35.2021V21.15C11.3716 19.724 12.4472 18.5703 13.7723 18.5703H37.5992C38.9263 18.5703 39.9999 19.7261 39.9999 21.15V35.2C39.9999 38.7857 38.1719 42.0826 35.2373 43.7871Z" fill="#002A61"/>
<path d="M35.2296 15.6597C36.5567 15.6597 37.6303 16.8154 37.6303 18.2394V32.2895C37.6303 35.8753 35.8022 39.1701 32.8676 40.8746L27.6349 43.9137C24.9401 45.479 21.6921 45.479 18.9974 43.9137L13.7646 40.8746" stroke="#81C1EA" stroke-width="2.17" stroke-miterlimit="10" stroke-linecap="round" stroke-linejoin="round"/>
<path d="M13.7627 40.8766C10.8281 39.1721 9 35.8752 9 32.2915V18.2394C9 16.8154 10.0756 15.6597 11.4007 15.6597H35.2277" stroke="#FFBE12" stroke-width="2.17" stroke-miterlimit="10" stroke-linecap="round" stroke-linejoin="round"/>
<path d="M23.1701 31.1793C25.3421 31.1793 27.1029 29.2872 27.1029 26.9532C27.1029 24.6192 25.3421 22.7271 23.1701 22.7271C20.9981 22.7271 19.2373 24.6192 19.2373 26.9532C19.2373 29.2872 20.9981 31.1793 23.1701 31.1793Z" fill="#81C1EA"/>
<path d="M23.1698 35.4074C22.1561 35.4074 21.334 34.524 21.334 33.4348V30.0527C21.334 28.9635 22.1561 28.0801 23.1698 28.0801C24.1835 28.0801 25.0056 28.9635 25.0056 30.0527V33.4348C25.0056 34.524 24.1835 35.4074 23.1698 35.4074Z" fill="#81C1EA"/>
</svg>
