<svg width="244" height="233" viewBox="0 0 244 233" fill="none" xmlns="http://www.w3.org/2000/svg">
<path opacity="0.5" d="M214.59 198.341C234.646 177.148 246.131 147.998 243.578 116.218C239.371 63.9072 196.397 21.6412 143.215 17.569C78.4786 12.5975 24.434 63.0758 24.9341 125.839C25.3997 184.648 76.7714 232.717 136.541 232.717H219.298C226.886 232.717 230.214 223.283 224.247 218.668L215.97 212.254C211.366 208.945 210.71 202.447 214.59 198.341Z" fill="#DAE0E9"/>
<path d="M91.8774 180.398C58.0145 179.545 30.5708 151.863 30.5708 118.166V65.7123C30.5708 31.4703 58.877 3.4668 93.4892 3.4668C106.087 3.4668 117.851 7.17355 127.72 13.552" stroke="#225AA7" stroke-width="6" stroke-miterlimit="10" stroke-linecap="round" stroke-linejoin="round"/>
<path d="M127.72 13.5519C144.955 24.6861 156.408 43.9333 156.408 65.7122V118.166C156.408 152.394 128.101 180.412 93.4893 180.412C92.952 180.412 92.4147 180.412 91.8774 180.398" stroke="#81C1EA" stroke-width="6" stroke-miterlimit="10" stroke-linecap="round" stroke-linejoin="round"/>
<path d="M29.0723 115.369H14.3112C8.09003 115.369 3 110.333 3 104.179V76.2031C3 70.0485 8.09003 65.0129 14.3112 65.0129H29.0723" stroke="#225AA7" stroke-width="6" stroke-miterlimit="10" stroke-linecap="round" stroke-linejoin="round"/>
<path d="M156.959 65.0129H174.082C180.303 65.0129 185.393 70.0485 185.393 76.2031V104.179C185.393 110.333 180.303 115.369 174.082 115.369H156.959" stroke="#81C1EA" stroke-width="6" stroke-miterlimit="10" stroke-linecap="round" stroke-linejoin="round"/>
<path d="M16.432 107.181V154.922C15.725 178.379 34.954 197.402 58.6651 197.402H69.4531" stroke="#338CBF" stroke-width="6" stroke-miterlimit="10" stroke-linecap="round" stroke-linejoin="round"/>
<path d="M109.749 204.396H75.8155C71.5455 204.396 68.0391 200.941 68.0391 196.703C68.0391 192.465 71.5314 189.01 75.8155 189.01H109.749C114.019 189.01 117.525 192.465 117.525 196.703C117.525 200.941 114.033 204.396 109.749 204.396Z" fill="#81C1EA"/>
<path d="M114.429 42.5903C125.048 43.5975 138.593 47.556 155.729 56.6201" stroke="#81C1EA" stroke-width="6" stroke-miterlimit="10" stroke-linecap="round" stroke-linejoin="round"/>
<path d="M32.6919 66.4116C32.6919 66.4116 44.0031 76.203 62.3837 74.8043C62.3837 74.8043 75.4481 74.8043 78.7142 60.8025C79.7181 56.5223 81.8531 52.5358 85.2889 49.7522C90.5061 45.5419 99.6116 41.1917 114.429 42.5905" stroke="#225AA7" stroke-width="6" stroke-miterlimit="10" stroke-linecap="round" stroke-linejoin="round"/>
</svg>
