<svg width="268" height="234" viewBox="0 0 268 234" fill="none" xmlns="http://www.w3.org/2000/svg">
<path fill-rule="evenodd" clip-rule="evenodd" d="M261.512 19.3886C261.512 18.2841 260.616 17.3886 259.512 17.3886C258.407 17.3886 257.512 18.2841 257.512 19.3886L257.512 28.0296H253.305C252.2 28.0296 251.305 28.9251 251.305 30.0296C251.305 31.1342 252.2 32.0296 253.305 32.0296H257.512L257.512 40.6706C257.512 41.7752 258.407 42.6706 259.512 42.6706C260.616 42.6706 261.512 41.7752 261.512 40.6706V32.0296H265.719C266.824 32.0296 267.719 31.1342 267.719 30.0296C267.719 28.9251 266.824 28.0296 265.719 28.0296H261.512V19.3886Z" fill="#FFBE12"/>
<path d="M71.8344 109.489L40.4414 139.142M104.31 106.067V139.142" stroke="#338CBF" stroke-width="6" stroke-linecap="round" stroke-linejoin="round"/>
<circle cx="51.198" cy="161.22" r="6.71749" fill="#81C1EA"/>
<circle cx="87.0251" cy="161.22" r="6.71749" fill="#81C1EA"/>
<circle cx="122.851" cy="161.22" r="6.71749" fill="#81C1EA"/>
<circle cx="158.678" cy="161.22" r="6.71749" fill="#81C1EA"/>
<circle cx="194.506" cy="161.22" r="6.71749" fill="#81C1EA"/>
<circle cx="230.33" cy="161.22" r="6.71749" fill="#81C1EA"/>
<path d="M50.7061 180.2V229.242" stroke="#338CBF" stroke-width="6" stroke-linecap="round"/>
<path d="M228.626 180.2V229.242" stroke="#338CBF" stroke-width="6" stroke-linecap="round"/>
<path d="M64.6318 230.634H36.6423" stroke="#81C1EA" stroke-width="6" stroke-linecap="round"/>
<path d="M241.526 230.634H213.537" stroke="#81C1EA" stroke-width="6" stroke-linecap="round"/>
<mask id="path-13-inside-1" fill="white">
<path fill-rule="evenodd" clip-rule="evenodd" d="M37.4939 7.00187C41.6671 2.6845 47.519 0 53.9979 0H118.45C123.973 0 128.45 4.47715 128.45 10V35.9028C128.45 41.4257 123.973 45.9029 118.45 45.9029H92.8692L100.188 58.5793C110.255 63.1602 117.254 73.3068 117.254 85.0882C117.254 101.165 104.221 114.197 88.1448 114.197C72.0683 114.197 59.0357 101.165 59.0357 85.0882C59.0357 83.3189 59.1935 81.5866 59.4959 79.9044L33.5651 34.9909C28.1849 25.6721 30.0823 14.1487 37.4939 7.00187Z"/>
</mask>
<path d="M37.4939 7.00187L41.6587 11.321C41.7093 11.2721 41.7591 11.2224 41.808 11.1719L37.4939 7.00187ZM92.8692 45.9029V39.9029C90.7256 39.9029 88.7448 41.0464 87.673 42.9029C86.6012 44.7593 86.6012 47.0464 87.673 48.9029L92.8692 45.9029ZM100.188 58.5793L94.9918 61.5793C95.617 62.6622 96.5648 63.5227 97.7029 64.0405L100.188 58.5793ZM59.4959 79.9044L65.4012 80.9658C65.652 79.5707 65.4008 78.1319 64.692 76.9044L59.4959 79.9044ZM33.5651 34.9909L28.3689 37.9909H28.3689L33.5651 34.9909ZM53.9979 -6C45.8263 -6 38.4368 -2.60666 33.1799 2.83185L41.808 11.1719C44.8975 7.97566 49.2117 6 53.9979 6V-6ZM118.45 -6H53.9979V6H118.45V-6ZM134.45 10C134.45 1.16344 127.287 -6 118.45 -6V6C120.659 6 122.45 7.79087 122.45 10H134.45ZM134.45 35.9028V10H122.45V35.9028H134.45ZM118.45 51.9029C127.287 51.9029 134.45 44.7394 134.45 35.9028H122.45C122.45 38.112 120.659 39.9029 118.45 39.9029V51.9029ZM92.8692 51.9029H118.45V39.9029H92.8692V51.9029ZM87.673 48.9029L94.9918 61.5793L105.384 55.5793L98.0653 42.9029L87.673 48.9029ZM123.254 85.0882C123.254 70.8692 114.802 58.6371 102.673 53.1182L97.7029 64.0405C105.708 67.6832 111.254 75.7444 111.254 85.0882H123.254ZM88.1448 120.197C107.535 120.197 123.254 104.478 123.254 85.0882H111.254C111.254 97.851 100.908 108.197 88.1448 108.197V120.197ZM53.0357 85.0882C53.0357 104.478 68.7546 120.197 88.1448 120.197V108.197C75.382 108.197 65.0357 97.851 65.0357 85.0882H53.0357ZM53.5905 78.8429C53.2255 80.8738 53.0357 82.9614 53.0357 85.0882H65.0357C65.0357 83.6765 65.1616 82.2993 65.4012 80.9658L53.5905 78.8429ZM64.692 76.9044L38.7612 31.9909L28.3689 37.9909L54.2997 82.9044L64.692 76.9044ZM38.7612 31.9909C34.7916 25.1152 36.1842 16.5999 41.6587 11.321L33.3291 2.68277C23.9805 11.6974 21.5782 26.229 28.3689 37.9909L38.7612 31.9909Z" fill="#81C1EA" mask="url(#path-13-inside-1)"/>
<line x1="162.055" y1="31.3484" x2="162.055" y2="57.0988" stroke="#338CBF" stroke-width="6"/>
<path fill-rule="evenodd" clip-rule="evenodd" d="M9.93795 187.043C9.93795 185.939 9.04252 185.043 7.93795 185.043C6.83338 185.043 5.93795 185.939 5.93795 187.043L5.93795 193.842H2.80566C1.70109 193.842 0.805664 194.737 0.805664 195.842C0.805664 196.946 1.70109 197.842 2.80566 197.842H5.93795L5.93795 204.64C5.93795 205.744 6.83338 206.64 7.93795 206.64C9.04252 206.64 9.93795 205.744 9.93795 204.64V197.842H13.0702C14.1748 197.842 15.0702 196.946 15.0702 195.842C15.0702 194.737 14.1748 193.842 13.0702 193.842H9.93795V187.043Z" fill="white"/>
<rect x="19.4912" y="141.828" width="238.069" height="38.7833" rx="17" stroke="#81C1EA" stroke-width="6"/>
<mask id="path-18-inside-2" fill="white">
<rect x="202.343" y="106.067" width="39.1854" height="38.0658" rx="4"/>
</mask>
<rect x="202.343" y="106.067" width="39.1854" height="38.0658" rx="4" stroke="#FFBE12" stroke-width="12" mask="url(#path-18-inside-2)"/>
<path d="M124.418 10.9836H173.881C180.413 10.9836 185.708 16.2785 185.708 22.8102C185.708 29.3418 180.413 34.6368 173.881 34.6368H124.418V10.9836Z" stroke="#81C1EA" stroke-width="6"/>
<path d="M147.938 82.2892L136.458 63.1566C134.858 60.4905 136.779 57.0987 139.888 57.0987H163.612H190.283C193.586 57.0987 195.466 60.8749 193.475 63.51L179.286 82.2892" stroke="#81C1EA" stroke-width="6" stroke-linecap="round"/>
<mask id="path-21-inside-3" fill="white">
<rect x="145.369" y="67.29" width="36.4963" height="35.3558" rx="4"/>
</mask>
<rect x="145.369" y="67.29" width="36.4963" height="35.3558" rx="4" stroke="#FFBE12" stroke-width="12" mask="url(#path-21-inside-3)"/>
</svg>
