<svg width="297" height="233" viewBox="0 0 297 233" fill="none" xmlns="http://www.w3.org/2000/svg">
<ellipse opacity="0.2" cx="143.499" cy="116.5" rx="121.5" ry="116.5" fill="#002A61"/>
<path fill-rule="evenodd" clip-rule="evenodd" d="M226.511 11.3886C226.511 10.2841 225.615 9.38864 224.511 9.38864C223.406 9.38864 222.511 10.2841 222.511 11.3886L222.511 20.0296H218.304C217.199 20.0296 216.304 20.9251 216.304 22.0296C216.304 23.1342 217.199 24.0296 218.304 24.0296H222.511L222.511 32.6706C222.511 33.7752 223.406 34.6706 224.511 34.6706C225.615 34.6706 226.511 33.7752 226.511 32.6706V24.0296H230.718C231.823 24.0296 232.718 23.1342 232.718 22.0296C232.718 20.9251 231.823 20.0296 230.718 20.0296H226.511V11.3886Z" fill="#FFBE12"/>
<path d="M54.9832 160.046C51.9186 160.046 48.9228 160.954 46.3747 162.657C43.8266 164.36 41.8405 166.78 40.6678 169.611C39.495 172.442 39.1881 175.558 39.786 178.564C40.3839 181.569 41.8596 184.33 44.0266 186.497C46.1936 188.664 48.9546 190.14 51.9603 190.738C54.966 191.336 58.0815 191.029 60.9129 189.856C63.7442 188.683 66.1642 186.697 67.8668 184.149C69.5694 181.601 70.4781 178.605 70.4781 175.541C70.4735 171.433 68.8395 167.494 65.9347 164.589C63.0298 161.684 59.0913 160.05 54.9832 160.046ZM54.9832 183.81C53.3477 183.81 51.7488 183.325 50.3889 182.416C49.029 181.508 47.9691 180.216 47.3432 178.705C46.7173 177.194 46.5535 175.531 46.8726 173.927C47.1917 172.323 47.9793 170.85 49.1358 169.693C50.2923 168.537 51.7658 167.749 53.3699 167.43C54.974 167.111 56.6368 167.275 58.1478 167.901C59.6589 168.526 60.9504 169.586 61.859 170.946C62.7677 172.306 63.2527 173.905 63.2527 175.541C63.2502 177.733 62.3781 179.835 60.8278 181.385C59.2775 182.935 57.1756 183.808 54.9832 183.81Z" fill="#F4F6F9"/>
<path d="M224.958 160.046C221.894 160.046 218.898 160.954 216.35 162.657C213.802 164.359 211.815 166.779 210.643 169.611C209.47 172.442 209.163 175.557 209.761 178.563C210.358 181.569 211.834 184.33 214.001 186.497C216.168 188.664 218.929 190.14 221.935 190.738C224.94 191.336 228.056 191.029 230.887 189.856C233.719 188.683 236.139 186.697 237.841 184.149C239.544 181.601 240.453 178.605 240.453 175.541C240.448 171.433 238.814 167.494 235.909 164.589C233.005 161.685 229.066 160.05 224.958 160.046ZM224.958 183.81C223.323 183.81 221.724 183.325 220.364 182.417C219.004 181.508 217.944 180.217 217.318 178.706C216.692 177.195 216.528 175.532 216.847 173.928C217.166 172.324 217.954 170.85 219.11 169.693C220.267 168.537 221.74 167.749 223.344 167.43C224.948 167.111 226.611 167.275 228.122 167.901C229.633 168.526 230.925 169.586 231.834 170.946C232.742 172.306 233.227 173.905 233.227 175.541C233.225 177.733 232.353 179.835 230.803 181.385C229.252 182.935 227.151 183.807 224.958 183.81Z" fill="#F4F6F9"/>
<path d="M79.7523 145.02L173.777 145.02C174.743 145.02 175.669 144.723 176.351 144.195C177.034 143.667 177.417 142.95 177.417 142.203C177.417 141.456 177.034 140.739 176.351 140.211C175.669 139.683 174.743 139.386 173.777 139.386L79.7523 139.386C78.7869 139.386 77.8611 139.683 77.1784 140.211C76.4958 140.739 76.1123 141.456 76.1123 142.203C76.1123 142.95 76.4958 143.667 77.1784 144.195C77.8611 144.724 78.7869 145.02 79.7523 145.02Z" fill="#FFBE12"/>
<path d="M254.306 71.2806C251.907 67.886 248.735 65.1172 245.055 63.2052C241.376 61.2931 237.294 60.2933 233.152 60.289H187.596C186.637 60.2857 185.715 60.6574 185.024 61.3256C184.334 61.9939 183.929 62.906 183.896 63.869V125.747H141.869V108.215C141.887 106.992 141.66 105.777 141.202 104.643C140.743 103.51 140.062 102.481 139.199 101.618C138.336 100.755 137.309 100.076 136.179 99.6206C135.05 99.1654 133.84 98.9438 132.623 98.9688H124.703V35.603C124.687 32.6827 123.554 29.8804 121.538 27.7778C119.522 25.6752 116.778 24.4338 113.876 24.3113C110.974 24.1888 108.136 25.1945 105.952 27.1199C103.768 29.0452 102.405 31.7421 102.146 34.6508L60.7239 22.1507C59.9033 21.9036 59.0216 21.9618 58.2402 22.3148C57.4588 22.6678 56.8301 23.2919 56.469 24.0728L53.4164 30.7055C53.0984 31.3973 53.009 32.1733 53.1612 32.9199C53.3134 33.6666 53.6992 34.3446 54.2623 34.855V68.025H51.556C49.5949 68.025 47.751 69.5519 47.751 71.524V78.8006C47.799 80.1025 48.1043 81.3818 48.649 82.564C49.1937 83.7461 49.967 84.8075 50.9238 85.6862L55.4462 89.7922V95.8167C55.4331 96.2792 55.512 96.7396 55.6784 97.1709C55.8449 97.6023 56.0953 97.9958 56.4152 98.3285C56.735 98.6611 57.1178 98.9261 57.541 99.1079C57.9641 99.2897 58.4192 99.3847 58.8794 99.3872C59.3272 99.3837 59.7713 99.4695 60.186 99.6396C60.6006 99.8097 60.9777 100.061 61.2952 100.378C61.6128 100.696 61.8647 101.073 62.0363 101.489C62.2078 101.905 62.2957 102.351 62.2949 102.801C62.301 103.248 62.2187 103.691 62.0527 104.106C61.8867 104.52 61.6404 104.897 61.3282 105.215C61.0159 105.532 60.6438 105.785 60.2337 105.956C59.8236 106.128 59.3835 106.216 58.9392 106.216C58.0286 106.221 57.1532 105.863 56.5042 105.221C55.8552 104.579 55.4855 103.705 55.4758 102.789C55.4637 101.849 55.0836 100.951 54.4178 100.29C53.752 99.6295 52.8541 99.259 51.9185 99.259C50.983 99.259 50.0851 99.6295 49.4193 100.29C48.7535 100.951 48.3734 101.849 48.3613 102.789C48.3805 105.588 49.4995 108.265 51.4743 110.238C53.449 112.211 56.1195 113.319 58.9034 113.32C61.6873 113.322 64.359 112.217 66.336 110.246C68.3129 108.276 69.4349 105.6 69.4573 102.801C69.4842 100.626 68.8323 98.4974 67.5931 96.7142C66.354 94.9311 64.5901 93.5833 62.5494 92.8604V89.9362L66.8492 85.6862C67.7558 84.789 68.4717 83.7161 68.9536 82.5325C69.4354 81.3489 69.6733 80.0793 69.6526 78.8006V71.524C69.6533 71.0599 69.562 70.6002 69.384 70.1719C69.206 69.7436 68.945 69.3552 68.616 69.0295C68.2871 68.7037 67.8969 68.4471 67.4682 68.2747C67.0396 68.1022 66.581 68.0173 66.1193 68.025H61.3655V38.9056L102.209 61.4857V98.9688H93.9924C88.7721 98.9688 84.451 102.965 84.451 108.215V125.747H4.3918C3.9491 125.718 3.50523 125.782 3.08845 125.935C2.67166 126.088 2.29108 126.326 1.97093 126.635C1.65078 126.944 1.39807 127.316 1.22887 127.728C1.05968 128.141 0.977709 128.584 0.98818 129.03V174.424C0.969568 174.891 1.04295 175.358 1.20412 175.796C1.36529 176.235 1.61107 176.637 1.92734 176.98C2.24361 177.323 2.62414 177.599 3.04707 177.794C3.46999 177.989 3.92699 178.097 4.3918 178.114H23.4101C24.0805 185.994 27.668 193.334 33.4631 198.683C39.2582 204.032 46.839 207 54.7062 207C62.5735 207 70.1543 204.032 75.9494 198.683C81.7446 193.334 85.332 185.994 86.0024 178.114H193.887C194.576 185.979 198.171 193.299 203.963 198.631C209.755 203.964 217.323 206.922 225.177 206.922C233.031 206.922 240.6 203.964 246.392 198.631C252.184 193.299 255.778 185.979 256.467 178.114H272.117C272.902 178.111 273.679 177.952 274.402 177.644C275.125 177.337 275.78 176.888 276.329 176.323C276.878 175.759 277.31 175.09 277.599 174.356C277.888 173.622 278.029 172.838 278.014 172.049V106.222C278.04 105.488 277.837 104.764 277.433 104.153L254.306 71.2806ZM109.312 35.603C109.312 34.4982 109.749 33.4387 110.526 32.6575C111.303 31.8763 112.357 31.4374 113.456 31.4374C114.555 31.4374 115.609 31.8763 116.386 32.6575C117.163 33.4387 117.599 34.4982 117.599 35.603V98.9688H109.312V35.603ZM62.5494 75.1659V78.8006C62.5505 79.1217 62.487 79.4396 62.3627 79.7354C62.2384 80.0312 62.0558 80.2986 61.826 80.5215L58.8332 83.3999L55.7108 80.5215C55.2106 80.084 54.9027 79.4654 54.8542 78.8006V75.1659H62.5494ZM61.3205 30.6829L61.726 29.8813L102.209 42.0928V53.3267L61.3205 30.6829ZM91.5542 108.215C91.5542 106.902 92.6871 106.11 93.9924 106.11H132.623C132.907 106.083 133.193 106.119 133.461 106.215C133.73 106.311 133.975 106.464 134.178 106.665C134.382 106.865 134.54 107.107 134.641 107.375C134.743 107.643 134.785 107.929 134.765 108.215V125.747H91.5542V108.215ZM54.7062 199.741C49.8971 199.741 45.1959 198.307 41.1973 195.621C37.1986 192.935 34.082 189.118 32.2417 184.651C30.4013 180.184 29.9198 175.27 30.858 170.528C31.7962 165.786 34.112 161.43 37.5126 158.012C40.9132 154.593 45.2458 152.265 49.9625 151.322C54.6793 150.379 59.5683 150.863 64.0114 152.713C68.4545 154.563 72.252 157.696 74.9238 161.716C77.5957 165.736 79.0217 170.462 79.0217 175.297C79.0144 181.777 76.4502 187.991 71.8918 192.573C67.3333 197.156 61.1529 199.734 54.7062 199.741ZM183.896 170.973H85.8083C84.7455 163.441 81.0141 156.548 75.3 151.561C69.586 146.574 62.2733 143.828 54.7062 143.828C47.1392 143.828 39.8265 146.574 34.1125 151.561C28.3984 156.548 24.667 163.441 23.6042 170.973H8.0914V132.888H183.896V170.973ZM225.183 199.741C220.374 199.741 215.673 198.307 211.674 195.621C207.676 192.935 204.559 189.118 202.719 184.651C200.878 180.184 200.397 175.27 201.335 170.528C202.273 165.786 204.589 161.43 207.99 158.012C211.39 154.593 215.723 152.265 220.44 151.322C225.156 150.379 230.046 150.863 234.489 152.713C238.932 154.563 242.729 157.696 245.401 161.716C248.073 165.736 249.499 170.462 249.499 175.297C249.492 181.777 246.927 187.991 242.369 192.573C237.811 197.156 231.63 199.734 225.183 199.741ZM270.91 145.385H261.439V131.103H270.91V145.385ZM270.91 123.962H257.765C257.3 123.977 256.842 124.083 256.417 124.276C255.993 124.469 255.61 124.744 255.292 125.086C254.973 125.428 254.725 125.829 254.561 126.267C254.397 126.706 254.321 127.172 254.336 127.64V149.035C254.324 149.493 254.404 149.949 254.571 150.375C254.739 150.801 254.99 151.189 255.311 151.515C255.631 151.841 256.013 152.099 256.435 152.272C256.857 152.446 257.309 152.532 257.765 152.526H270.91V170.973H256.301C255.253 163.428 251.526 156.518 245.809 151.518C240.092 146.518 232.769 143.764 225.191 143.764C217.613 143.764 210.291 146.518 204.574 151.518C198.856 156.518 195.13 163.428 194.081 170.973H190.999V67.4299H201.654V94.3201C201.654 98.3938 203.264 102.301 206.129 105.181C208.995 108.062 212.881 109.68 216.933 109.68H239.538C240.48 109.68 241.383 109.304 242.049 108.634C242.715 107.965 243.089 107.057 243.089 106.11C243.089 105.163 242.715 104.255 242.049 103.585C241.383 102.915 240.48 102.539 239.538 102.539H217.002C214.816 102.539 212.718 101.666 211.172 100.112C209.626 98.5571 208.757 96.4488 208.757 94.2505V67.4299H233.152C236.16 67.4333 239.124 68.1596 241.796 69.5483C244.468 70.9369 246.771 72.9477 248.513 75.4128L267.655 102.539H263.215C262.273 102.539 261.37 102.915 260.704 103.585C260.038 104.255 259.664 105.163 259.664 106.11C259.664 107.057 260.038 107.965 260.704 108.634C261.37 109.304 262.273 109.68 263.215 109.68H270.91V123.962Z" fill="#81C1EA"/>
<mask id="path-7-inside-1" fill="white">
<rect x="260.173" y="129.995" width="13.1472" height="16.9036" rx="4"/>
</mask>
<rect x="260.173" y="129.995" width="13.1472" height="16.9036" rx="4" stroke="#FFBE12" stroke-width="13.1472" stroke-linecap="round" stroke-linejoin="round" mask="url(#path-7-inside-1)"/>
<path fill-rule="evenodd" clip-rule="evenodd" d="M24.1313 75C24.1313 73.8954 23.2359 73 22.1313 73C21.0267 73 20.1313 73.8954 20.1313 75L20.1313 81.7982H16.999C15.8945 81.7982 14.999 82.6936 14.999 83.7982C14.999 84.9028 15.8945 85.7982 16.999 85.7982H20.1313L20.1313 92.5964C20.1313 93.701 21.0267 94.5964 22.1313 94.5964C23.2359 94.5964 24.1313 93.701 24.1313 92.5964V85.7982H27.2636C28.3682 85.7982 29.2636 84.9028 29.2636 83.7982C29.2636 82.6936 28.3682 81.7982 27.2636 81.7982H24.1313V75Z" fill="white"/>
<path fill-rule="evenodd" clip-rule="evenodd" d="M291.131 64C291.131 62.8954 290.236 62 289.131 62C288.027 62 287.131 62.8954 287.131 64L287.131 70.7982H283.999C282.894 70.7982 281.999 71.6936 281.999 72.7982C281.999 73.9028 282.894 74.7982 283.999 74.7982H287.131L287.131 81.5964C287.131 82.701 288.027 83.5964 289.131 83.5964C290.236 83.5964 291.131 82.701 291.131 81.5964V74.7982H294.264C295.368 74.7982 296.264 73.9028 296.264 72.7982C296.264 71.6936 295.368 70.7982 294.264 70.7982H291.131V64Z" fill="white"/>
</svg>