<svg width="268" height="236" viewBox="0 0 268 236" fill="none" xmlns="http://www.w3.org/2000/svg">
<path fill-rule="evenodd" clip-rule="evenodd" d="M261.512 21.3886C261.512 20.2841 260.616 19.3886 259.512 19.3886C258.407 19.3886 257.512 20.2841 257.512 21.3886L257.512 30.0296H253.305C252.2 30.0296 251.305 30.9251 251.305 32.0296C251.305 33.1342 252.2 34.0296 253.305 34.0296H257.512L257.512 42.6706C257.512 43.7752 258.407 44.6706 259.512 44.6706C260.616 44.6706 261.512 43.7752 261.512 42.6706V34.0296H265.719C266.824 34.0296 267.719 33.1342 267.719 32.0296C267.719 30.9251 266.824 30.0296 265.719 30.0296H261.512V21.3886Z" fill="#FFBE12"/>
<path d="M71.8344 111.489L40.4414 141.142M104.31 108.067V141.142" stroke="#338CBF" stroke-width="6" stroke-linecap="round" stroke-linejoin="round"/>
<circle cx="51.198" cy="163.22" r="6.71749" fill="#81C1EA"/>
<circle cx="87.0251" cy="163.22" r="6.71749" fill="#81C1EA"/>
<circle cx="122.851" cy="163.22" r="6.71749" fill="#81C1EA"/>
<circle cx="158.678" cy="163.22" r="6.71749" fill="#81C1EA"/>
<circle cx="194.506" cy="163.22" r="6.71749" fill="#81C1EA"/>
<circle cx="230.33" cy="163.22" r="6.71749" fill="#81C1EA"/>
<path d="M50.7061 182.2V231.242" stroke="#338CBF" stroke-width="6" stroke-linecap="round"/>
<path d="M228.626 182.2V231.242" stroke="#338CBF" stroke-width="6" stroke-linecap="round"/>
<path d="M64.6318 232.634H36.6423" stroke="#81C1EA" stroke-width="6" stroke-linecap="round"/>
<path d="M241.526 232.634H213.537" stroke="#81C1EA" stroke-width="6" stroke-linecap="round"/>
<mask id="path-13-inside-1" fill="white">
<path fill-rule="evenodd" clip-rule="evenodd" d="M37.4939 9.00187C41.6671 4.6845 47.519 2 53.9979 2H118.45C123.973 2 128.45 6.47715 128.45 12V37.9028C128.45 43.4257 123.973 47.9029 118.45 47.9029H92.8692L100.188 60.5793C110.255 65.1601 117.254 75.3068 117.254 87.0882C117.254 103.165 104.221 116.197 88.1448 116.197C72.0683 116.197 59.0357 103.165 59.0357 87.0882C59.0357 85.3189 59.1935 83.5865 59.4959 81.9044L33.5651 36.9909C28.1849 27.6721 30.0823 16.1487 37.4939 9.00187Z"/>
</mask>
<path d="M37.4939 9.00187L41.6587 13.321C41.7093 13.2721 41.7591 13.2224 41.808 13.1719L37.4939 9.00187ZM92.8692 47.9029V41.9029C90.7256 41.9029 88.7448 43.0464 87.673 44.9029C86.6012 46.7593 86.6012 49.0464 87.673 50.9029L92.8692 47.9029ZM100.188 60.5793L94.9918 63.5793C95.617 64.6622 96.5648 65.5227 97.7029 66.0405L100.188 60.5793ZM59.4959 81.9044L65.4012 82.9658C65.652 81.5707 65.4008 80.1319 64.692 78.9044L59.4959 81.9044ZM33.5651 36.9909L28.3689 39.9909L28.3689 39.9909L33.5651 36.9909ZM53.9979 -4C45.8263 -4 38.4368 -0.606658 33.1799 4.83185L41.808 13.1719C44.8975 9.97566 49.2117 8 53.9979 8V-4ZM118.45 -4H53.9979V8H118.45V-4ZM134.45 12C134.45 3.16344 127.287 -4 118.45 -4V8C120.659 8 122.45 9.79087 122.45 12H134.45ZM134.45 37.9028V12H122.45V37.9028H134.45ZM118.45 53.9029C127.287 53.9029 134.45 46.7394 134.45 37.9028H122.45C122.45 40.112 120.659 41.9029 118.45 41.9029V53.9029ZM92.8692 53.9029H118.45V41.9029H92.8692V53.9029ZM87.673 50.9029L94.9918 63.5793L105.384 57.5793L98.0653 44.9029L87.673 50.9029ZM123.254 87.0882C123.254 72.8692 114.802 60.6371 102.673 55.1182L97.7029 66.0405C105.708 69.6832 111.254 77.7444 111.254 87.0882H123.254ZM88.1448 122.197C107.535 122.197 123.254 106.478 123.254 87.0882H111.254C111.254 99.851 100.908 110.197 88.1448 110.197V122.197ZM53.0357 87.0882C53.0357 106.478 68.7546 122.197 88.1448 122.197V110.197C75.382 110.197 65.0357 99.851 65.0357 87.0882H53.0357ZM53.5905 80.8429C53.2255 82.8738 53.0357 84.9614 53.0357 87.0882H65.0357C65.0357 85.6765 65.1616 84.2993 65.4012 82.9658L53.5905 80.8429ZM64.692 78.9044L38.7612 33.9909L28.3689 39.9909L54.2997 84.9044L64.692 78.9044ZM38.7612 33.9909C34.7916 27.1152 36.1842 18.5999 41.6587 13.321L33.3291 4.68277C23.9805 13.6974 21.5782 28.229 28.3689 39.9909L38.7612 33.9909Z" fill="#81C1EA" mask="url(#path-13-inside-1)"/>
<line x1="162.055" y1="33.3484" x2="162.055" y2="59.0988" stroke="#338CBF" stroke-width="6"/>
<path fill-rule="evenodd" clip-rule="evenodd" d="M9.93795 189.043C9.93795 187.939 9.04252 187.043 7.93795 187.043C6.83338 187.043 5.93795 187.939 5.93795 189.043L5.93795 195.842H2.80566C1.70109 195.842 0.805664 196.737 0.805664 197.842C0.805664 198.946 1.70109 199.842 2.80566 199.842H5.93795L5.93795 206.64C5.93795 207.744 6.83338 208.64 7.93795 208.64C9.04252 208.64 9.93795 207.744 9.93795 206.64V199.842H13.0702C14.1748 199.842 15.0702 198.946 15.0702 197.842C15.0702 196.737 14.1748 195.842 13.0702 195.842H9.93795V189.043Z" fill="white"/>
<rect x="19.4912" y="143.828" width="238.069" height="38.7833" rx="17" stroke="#81C1EA" stroke-width="6"/>
<mask id="path-18-inside-2" fill="white">
<rect x="202.343" y="108.067" width="39.1854" height="38.0658" rx="4"/>
</mask>
<rect x="202.343" y="108.067" width="39.1854" height="38.0658" rx="4" stroke="#FFBE12" stroke-width="12" mask="url(#path-18-inside-2)"/>
<path d="M124.418 12.9836H173.881C180.413 12.9836 185.708 18.2785 185.708 24.8102C185.708 31.3418 180.413 36.6368 173.881 36.6368H124.418V12.9836Z" stroke="#81C1EA" stroke-width="6"/>
<path d="M147.938 84.2892L136.458 65.1566C134.858 62.4905 136.779 59.0987 139.888 59.0987H163.612H190.283C193.586 59.0987 195.466 62.8749 193.475 65.51L179.286 84.2892" stroke="#81C1EA" stroke-width="6" stroke-linecap="round"/>
<mask id="path-21-inside-3" fill="white">
<rect x="145.369" y="69.29" width="36.4963" height="35.3558" rx="4"/>
</mask>
<rect x="145.369" y="69.29" width="36.4963" height="35.3558" rx="4" stroke="#FFBE12" stroke-width="12" mask="url(#path-21-inside-3)"/>
<ellipse opacity="0.2" cx="138.5" cy="116.5" rx="121.5" ry="116.5" fill="#002A61"/>
</svg>