<svg width="293" height="233" viewBox="0 0 293 233" fill="none" xmlns="http://www.w3.org/2000/svg">
<ellipse opacity="0.2" cx="171.5" cy="116.5" rx="121.5" ry="116.5" fill="#225AA7"/>
<path d="M70.9668 160.482H87.2871V140.199C87.2871 137.084 84.7544 134.562 81.6267 134.562H74.6854" stroke="white" stroke-width="6" stroke-miterlimit="10" stroke-linecap="round" stroke-linejoin="round"/>
<path d="M65.0998 162.704C65.0998 170.451 59.6129 176.734 52.8492 176.734C46.0856 176.734 40.5986 170.451 40.5986 162.704" stroke="#225AA7" stroke-width="6" stroke-miterlimit="10" stroke-linecap="round" stroke-linejoin="round"/>
<path d="M192.477 162.704C192.477 170.451 186.99 176.734 180.226 176.734C173.463 176.734 167.976 170.451 167.976 162.704" stroke="#225AA7" stroke-width="6" stroke-miterlimit="10" stroke-linecap="round" stroke-linejoin="round"/>
<path d="M264.093 160.482C272.327 160.482 279 153.838 279 145.638V114.842C279 102.569 276.901 90.3868 272.79 78.8214L269.497 69.556L264.733 62.2407C261.519 57.3077 256.019 54.333 250.115 54.333H129.431H89.9691C83.6062 54.333 77.3508 55.9705 71.806 59.0809L48.0361 72.436" stroke="#338CBF" stroke-width="6" stroke-miterlimit="10" stroke-linecap="round" stroke-linejoin="round"/>
<path d="M144.728 160.465H209.448" stroke="#338CBF" stroke-width="6" stroke-miterlimit="10" stroke-linecap="round" stroke-linejoin="round"/>
<path d="M87.4941 160.482H96.4972" stroke="white" stroke-width="6" stroke-miterlimit="10" stroke-linecap="round" stroke-linejoin="round"/>
<path d="M106.707 72.436L131.704 54.333" stroke="#338CBF" stroke-width="6" stroke-miterlimit="10" stroke-linecap="round" stroke-linejoin="round"/>
<path d="M119.749 72.5612H260.78" stroke="#81C1EA" stroke-width="6" stroke-miterlimit="10" stroke-linecap="round" stroke-linejoin="round"/>
<path d="M117.449 183.522C126.576 183.522 133.976 175.049 133.976 164.597C133.976 154.144 126.576 145.671 117.449 145.671C108.321 145.671 100.922 154.144 100.922 164.597C100.922 175.049 108.321 183.522 117.449 183.522Z" stroke="#338CBF" stroke-width="6" stroke-miterlimit="10" stroke-linecap="round" stroke-linejoin="round"/>
<path d="M237.6 183.523C246.728 183.523 254.127 175.049 254.127 164.597C254.127 154.144 246.728 145.671 237.6 145.671C228.473 145.671 221.073 154.144 221.073 164.597C221.073 175.049 228.473 183.523 237.6 183.523Z" stroke="#338CBF" stroke-width="6" stroke-miterlimit="10" stroke-linecap="round" stroke-linejoin="round"/>
<path d="M142.859 72.5612V102.09C142.859 109.775 141.537 117.403 138.947 124.644L134.183 137.979" stroke="#81C1EA" stroke-width="6" stroke-miterlimit="10" stroke-linecap="round" stroke-linejoin="round"/>
<path d="M38.7393 128.597C41.4776 128.597 43.6974 126.386 43.6974 123.659C43.6974 120.933 41.4776 118.722 38.7393 118.722C36.0011 118.722 33.7812 120.933 33.7812 123.659C33.7812 126.386 36.0011 128.597 38.7393 128.597Z" stroke="#338CBF" stroke-width="6" stroke-miterlimit="10" stroke-linecap="round" stroke-linejoin="round"/>
<path d="M48.0361 72.436L17.8745 102.059L16.6721 103.092C11.6645 107.399 8.78467 113.666 8.78467 120.257V134.562H74.4792V120.639C74.4792 115.789 76.041 111.061 78.9373 107.161L81.5032 103.705L106.707 72.436H48.0361Z" stroke="#81C1EA" stroke-width="6" stroke-miterlimit="10" stroke-linecap="round" stroke-linejoin="round"/>
<path fill-rule="evenodd" clip-rule="evenodd" d="M29.1111 43C29.1111 41.8954 28.2157 41 27.1111 41C26.0065 41 25.1111 41.8954 25.1111 43L25.1111 58.3333H17C15.8954 58.3333 15 59.2288 15 60.3333C15 61.4379 15.8954 62.3333 17 62.3333H25.1111L25.1111 77.6667C25.1111 78.7712 26.0065 79.6667 27.1111 79.6667C28.2157 79.6667 29.1111 78.7712 29.1111 77.6667L29.1111 62.3333H37.2222C38.3268 62.3333 39.2222 61.4379 39.2222 60.3333C39.2222 59.2288 38.3268 58.3333 37.2222 58.3333H29.1111L29.1111 43Z" fill="#FFBE12"/>
<path d="M8.78442 134.562L5.80131 136.257C4.07012 137.245 3 139.08 3 141.067V155.162C3 158.1 5.39227 160.482 8.3382 160.482H70.7604V141.347C70.7604 140.149 71.1488 138.981 71.8718 138.022L74.479 134.562H8.78442Z" stroke="white" stroke-width="6" stroke-miterlimit="10" stroke-linecap="round" stroke-linejoin="round"/>
<path d="M74.0554 100.574H31.0358C30.0332 100.574 29.5355 99.4045 30.2496 98.731L50.2538 79.7491C51.1914 78.8569 52.4608 78.3571 53.7771 78.3571H92.545C93.4826 78.3571 94.0055 79.3985 93.4213 80.1067L77.9827 98.7553C77.0306 99.9044 75.5845 100.574 74.0554 100.574Z" fill="#338CBF"/>
<path d="M150.647 83.1825L156.634 99.1543C158.493 104.116 163.253 107.408 168.575 107.408H265.716C269.154 107.408 271.732 104.277 271.058 100.919L267.245 81.94C266.737 79.4056 264.501 77.5788 261.902 77.5788H154.552C151.643 77.5788 149.631 80.467 150.647 83.1825Z" fill="#338CBF"/>
<path d="M95.6501 107.408H131.844C134.005 107.408 135.761 105.663 135.761 103.507V81.4792C135.761 79.3274 134.009 77.5788 131.844 77.5788H113.64C112.47 77.5788 111.367 78.0972 110.623 78.9941L92.5265 100.796C90.3367 103.429 92.2166 107.408 95.6501 107.408Z" fill="#338CBF"/>
<path fill-rule="evenodd" clip-rule="evenodd" d="M279.082 32C279.082 30.8954 278.186 30 277.082 30C275.977 30 275.082 30.8954 275.082 32L275.082 39.3301H271.639C270.535 39.3301 269.639 40.2255 269.639 41.3301C269.639 42.4346 270.535 43.3301 271.639 43.3301H275.082L275.082 50.6601C275.082 51.7647 275.977 52.6601 277.082 52.6601C278.186 52.6601 279.082 51.7647 279.082 50.6601V43.3301H282.524C283.629 43.3301 284.524 42.4346 284.524 41.3301C284.524 40.2255 283.629 39.3301 282.524 39.3301H279.082V32Z" fill="#FFBE12"/>
</svg>
