<svg width="305" height="305" viewBox="0 0 305 305" fill="none" xmlns="http://www.w3.org/2000/svg">
<circle opacity="0.1" cx="152.054" cy="152.054" r="152.054" fill="#002A61"/>
<path opacity="0.5" d="M223.102 251.306H129.865C115.606 251.306 104.056 239.756 104.056 225.496V58.8097C104.056 44.5501 115.606 33 129.865 33H223.102C237.362 33 248.912 44.5501 248.912 58.8097V225.496C248.912 239.756 237.362 251.306 223.102 251.306Z" fill="#002A61"/>
<path d="M128.984 251.39C114.725 251.39 103.175 239.84 103.175 225.58V58.8934C103.175 44.6338 114.725 33.0837 128.984 33.0837H192.727" stroke="#81C1EA" stroke-width="6" stroke-miterlimit="10" stroke-linecap="round" stroke-linejoin="round"/>
<path d="M192.727 33.0837H222.221C236.481 33.0837 248.031 44.6338 248.031 58.8934V225.58C248.031 239.84 236.481 251.39 222.221 251.39H128.984" stroke="white" stroke-width="6" stroke-miterlimit="10" stroke-linecap="round" stroke-linejoin="round"/>
<path d="M155.584 224.047H194.105" stroke="#338CBF" stroke-width="6" stroke-miterlimit="10" stroke-linecap="round" stroke-linejoin="round"/>
<path d="M176.377 68.7248C181.055 68.7248 184.846 64.746 184.846 59.8378C184.846 54.9296 181.055 50.9507 176.377 50.9507C171.7 50.9507 167.908 54.9296 167.908 59.8378C167.908 64.746 171.7 68.7248 176.377 68.7248Z" fill="#338CBF"/>
<path d="M34.6022 58.7539C13.8244 63.4297 -0.357723 85.508 8.14228 108.871C11.6414 118.502 19.3208 126.166 28.9356 129.665C52.299 138.165 74.3773 123.967 79.0376 103.205C79.982 99.0089 76.7462 95.0144 72.442 95.0144H49.5276C45.8117 95.0144 42.7926 91.9953 42.7926 88.2794V65.365C42.7926 61.0454 38.8135 57.8095 34.6022 58.7539Z" fill="#81C1EA"/>
<path d="M48.9854 59.6366V81.6995C48.9854 85.6321 52.1748 88.8215 56.1074 88.8215H78.1857C82.7686 88.8215 86.1903 84.5483 85.122 80.1047C81.8706 66.5883 71.234 55.9363 57.7176 52.7004C53.2586 51.6166 48.9854 55.0537 48.9854 59.6366Z" fill="#FFBE12"/>
</svg>
