<svg width="28" height="28" viewBox="0 0 28 28" fill="none" xmlns="http://www.w3.org/2000/svg">
<path fill-rule="evenodd" clip-rule="evenodd" d="M4.6665 4.33337V23.6667C4.6665 24.7713 5.56193 25.6667 6.6665 25.6667H21.3332C22.4377 25.6667 23.3332 24.7713 23.3332 23.6667V13.6667C23.3332 12.5621 22.4377 11.6667 21.3332 11.6667H18.7498L14.9998 11.6667C14.4476 11.6667 13.9998 11.219 13.9998 10.6667V4.33337C13.9998 3.2288 13.1044 2.33337 11.9998 2.33337H6.6665C5.56193 2.33337 4.6665 3.22881 4.6665 4.33337ZM9.31788 16.3442C9.31788 16.9886 9.84022 17.5124 10.4846 17.5143L17.4998 17.535C18.1442 17.5368 18.6665 17.016 18.6665 16.3717C18.6665 15.7274 18.1442 15.2035 17.4998 15.2016L10.4846 15.181C9.84022 15.1791 9.31788 15.6999 9.31788 16.3442ZM10.4846 22.1783C9.84022 22.1764 9.31788 21.6525 9.31788 21.0082C9.31788 20.3638 9.84022 19.843 10.4846 19.8449L15.6399 19.8601C16.2843 19.862 16.8066 20.3858 16.8066 21.0302C16.8066 21.6745 16.2843 22.1953 15.6399 22.1934L10.4846 22.1783ZM21.4018 10.5H16.1665C15.6142 10.5 15.1665 10.0523 15.1665 9.50004V4.26474C15.1665 3.55202 16.0282 3.19509 16.5322 3.69906L21.9675 9.13436C22.4715 9.63833 22.1145 10.5 21.4018 10.5Z" fill="#225AA7"/>
</svg>
