<svg width="201" height="27" viewBox="0 0 201 27" fill="none" xmlns="http://www.w3.org/2000/svg">
<path fill-rule="evenodd" clip-rule="evenodd" d="M1.08429 0H33.5605C34.1576 0 34.6395 0.490638 34.6447 1.09206V25.4182C34.6447 26.0196 34.1576 26.5103 33.5605 26.5103H1.08429C0.487143 26.5103 0 26.0196 0 25.4182V1.09206C0 0.490638 0.487143 0 1.08429 0ZM9.22947 16.7339C9.22947 17.4884 9.83709 18.1003 10.5861 18.1003C11.3352 18.1003 11.948 17.4884 11.9428 16.7339C11.9428 15.9742 11.3352 15.3623 10.5861 15.3623C9.83709 15.3623 9.22947 15.9795 9.22947 16.7339ZM6.74138 13.1412C5.99233 13.1412 5.38471 13.7585 5.38471 14.5129C5.38471 15.2673 5.99233 15.8793 6.74138 15.8846C7.49043 15.8846 8.09805 15.2673 8.09805 14.5129C8.09805 13.7532 7.49043 13.1412 6.74138 13.1412ZM11.9428 12.2865C11.9428 11.5321 11.3352 10.9201 10.5861 10.9201C9.83709 10.9201 9.22947 11.5374 9.22947 12.2865C9.22947 13.041 9.83709 13.6529 10.5861 13.6529C11.3352 13.6529 11.9428 13.041 11.9428 12.2865ZM13.509 13.1781H30.9466V15.8476H29.5323V19.5353H28.118V17.6941H26.7509V19.5353H25.3366V15.8476H13.509C13.5928 16.1272 13.6399 16.4227 13.6399 16.7339C13.6399 18.4274 12.2728 19.8044 10.5914 19.8044C9.1509 19.8044 7.95138 18.7967 7.62662 17.4514C7.34376 17.5358 7.05043 17.5833 6.74138 17.5833C5.05995 17.5833 3.69281 16.2064 3.69281 14.5129C3.69281 12.8194 5.05995 11.4424 6.74138 11.4424C7.05043 11.4424 7.349 11.4899 7.62662 11.5743C7.95138 10.229 9.15614 9.22137 10.5914 9.22137C12.2728 9.22137 13.6399 10.5983 13.6399 12.2918C13.6399 12.6031 13.5928 12.8985 13.509 13.1781ZM103.998 0C103.446 0 102.998 0.447716 102.998 1V25.2176C102.998 25.7699 103.446 26.2176 103.998 26.2176H199.195C199.747 26.2176 200.195 25.7699 200.195 25.2176V1C200.195 0.447715 199.747 0 199.195 0H103.998ZM189.915 19.8358H189.779V19.4771C189.807 19.4657 189.864 19.4601 189.937 19.4601C190.118 19.4601 190.203 19.5398 190.203 19.6536C190.203 19.7845 190.073 19.8358 189.915 19.8358ZM189.485 20.5474H189.773V20.0407H189.909C190.067 20.0407 190.146 20.1033 190.169 20.24C190.174 20.2592 190.179 20.2779 190.183 20.2959L190.197 20.3512C190.219 20.4442 190.236 20.5141 190.265 20.5474H190.576C190.548 20.5018 190.525 20.4278 190.485 20.2343C190.451 20.0635 190.384 19.9724 190.259 19.9269V19.9098C190.412 19.8642 190.519 19.7561 190.519 19.6195C190.519 19.4999 190.468 19.3974 190.401 19.3462C190.305 19.295 190.203 19.2551 189.965 19.2551C189.756 19.2551 189.598 19.2722 189.485 19.295V20.5474ZM189.977 20.889C189.417 20.889 189.005 20.4449 189.005 19.887C189.005 19.3405 189.417 18.8851 189.971 18.8851C190.525 18.8851 190.926 19.3348 190.926 19.8927C190.926 20.4449 190.525 20.889 189.977 20.889ZM189.965 21.1565C190.689 21.1565 191.243 20.5986 191.243 19.887C191.243 19.1925 190.689 18.6346 189.965 18.6346C189.253 18.6346 188.682 19.1925 188.682 19.887C188.682 20.5986 189.253 21.1565 189.965 21.1565ZM135.008 18.475H134.974H134.94C132.849 18.475 131.402 16.8469 131.402 14.8714C131.402 12.896 132.843 11.2678 134.94 11.2678H134.974H135.008C137.099 11.2678 138.546 12.896 138.546 14.8714C138.546 16.8526 137.099 18.475 135.008 18.475ZM134.974 8.76297C131.549 8.76297 128.705 11.2508 128.7 14.8771C128.7 18.5035 131.543 20.9913 134.974 20.9913C138.405 20.9913 141.248 18.5035 141.248 14.8771C141.248 11.2508 138.405 8.76297 134.974 8.76297ZM121.707 18.3668C123.448 18.3668 125.008 17.5698 126.043 16.323L128.004 18.0594C126.467 19.8469 124.178 20.9855 121.617 20.9855C116.988 20.9855 113.229 17.2624 113.229 12.6739C113.229 8.09113 116.982 4.36798 121.617 4.36798C124.161 4.36798 126.438 5.48948 127.976 7.25997L126.009 8.9963C124.969 7.77233 123.431 6.9924 121.707 6.9924C118.587 6.9924 116.061 9.53712 116.061 12.6796C116.061 15.8221 118.587 18.3668 121.707 18.3668ZM162.156 18.4751H162.128H162.094C159.997 18.4751 158.55 16.8469 158.55 14.8658C158.55 12.8904 159.997 11.2565 162.094 11.2565H162.128H162.156C164.253 11.2565 165.7 12.8847 165.7 14.8658C165.7 16.8469 164.253 18.4751 162.156 18.4751ZM162.128 8.74594C158.697 8.74594 155.842 11.2622 155.842 14.8658V25.9726H158.55V19.9609C159.567 20.6213 160.799 20.9913 162.122 20.9913C165.553 20.9913 168.402 18.5035 168.402 14.8715C168.407 11.2394 165.558 8.74594 162.128 8.74594ZM148.545 18.4751H148.579C150.676 18.4751 152.123 16.8469 152.123 14.8658C152.123 12.8847 150.676 11.2565 148.579 11.2565H148.545H148.511C146.414 11.2565 144.967 12.8904 144.967 14.8658C144.967 16.8469 146.414 18.4751 148.511 18.4751H148.545ZM142.259 14.8658C142.259 11.2622 145.114 8.74594 148.545 8.74594C151.981 8.74594 154.825 11.2394 154.819 14.8715C154.819 18.5035 151.97 20.9913 148.539 20.9913C147.222 20.9913 145.984 20.6213 144.967 19.9609V25.9726H142.259V14.8658ZM171.804 13.6532C171.804 12.5659 173.206 11.0857 175.077 11.0857C176.309 11.0857 177.943 12.025 177.943 13.6532H171.804ZM174.907 8.74594C171.725 8.74594 169.091 11.2337 169.086 14.8658C169.086 18.4979 171.725 20.9856 174.907 20.9856C176.824 20.9856 178.841 20.3879 179.904 18.8736L178.31 17.2682C177.615 18.0766 176.552 18.5776 175.235 18.5776C173.15 18.5776 171.748 17.3365 171.748 15.5831H180.684C180.707 15.3497 180.724 15.1106 180.724 14.8601C180.724 11.2394 178.463 8.74594 174.907 8.74594ZM184.449 4.55594V14.8658C184.449 16.8241 185.862 18.4352 187.914 18.4693V20.9856C184.528 20.9344 181.747 18.458 181.741 14.8658V4.55594H184.449ZM47.7428 5.61807H48.1685C51.2616 5.61807 53.7759 8.12575 53.7759 11.2254V21.6818H50.9955V16.3272H44.9159V21.6885H42.1355V11.2254C42.1355 8.12575 44.6432 5.61807 47.7428 5.61807ZM44.9159 13.6533H50.9955V11.3385C50.9955 9.66228 49.6319 8.29869 47.9557 8.29869C46.2795 8.29869 44.9159 9.66228 44.9159 11.3385V13.6533ZM55.2526 21.6818V11.0857C55.2526 7.70669 57.7004 5.61807 60.7202 5.61807H61.8577V8.46498H61.3189C59.6493 8.46498 58.299 9.81527 58.299 11.4848H61.8643V14.1122H58.1593V21.6818H55.2526ZM79.5844 9.52923V10.1877C80.163 9.74874 81.2672 9.23656 83.2228 9.37625V12.0036C83.2228 12.0036 80.2296 11.4848 79.5844 14.6111V21.6885H76.8239V9.52923H79.5844ZM62.9685 15.5157C62.9685 11.8573 65.8353 9.34961 69.2942 9.34961C72.7531 9.34961 75.6199 11.8573 75.6266 15.5157C75.6199 19.1741 72.7531 21.6818 69.2942 21.6818C65.842 21.6884 62.9751 19.1741 62.9685 15.5157ZM69.3341 19.1541C71.4493 19.1541 72.8994 17.5112 72.8994 15.5223C72.8994 13.5335 71.4427 11.8905 69.3341 11.8905H69.3208H69.3075H69.2942H69.2809H69.2742C67.1657 11.8905 65.709 13.5335 65.709 15.5223C65.709 17.5178 67.1657 19.1541 69.2742 19.1541H69.3341ZM89.6816 9.3031C86.4223 9.3031 83.7217 11.8241 83.7217 15.4958C83.7217 19.1675 86.4223 21.6885 89.6816 21.6951C91.6438 21.6951 93.7125 21.0898 94.8033 19.5599L93.1737 17.9369C92.462 18.7551 91.3777 19.2606 90.0274 19.2606C87.8856 19.2606 86.4555 18.0035 86.4555 16.2275H95.6015C95.6281 15.988 95.6414 15.7486 95.6414 15.4958C95.6414 11.8241 93.3267 9.3031 89.6816 9.3031ZM86.5021 14.2586C86.5021 13.1611 87.9388 11.6644 89.8545 11.6644C91.1183 11.6644 92.7945 12.6156 92.7879 14.2586H86.5021Z" fill="white"/>
</svg>
