<svg width="80" height="80" viewBox="0 0 80 80" fill="none" xmlns="http://www.w3.org/2000/svg">
<path d="M39.0519 64.93L44.9347 59.2411C46.0438 58.1678 47.7119 58.0158 48.9852 58.8726L51.9133 60.8395C53.3152 61.7792 55.1697 61.489 56.2433 60.167L61.0525 54.2247C62.4056 52.5526 64.9034 52.5987 66.1944 54.3261L72.3035 62.4794C72.756 63.0828 73 63.8244 73 64.5891V68.3709C73 69.5824 72.3878 70.7017 71.3851 71.319L67.8359 73.5162C67.3213 73.8341 66.7268 74.0045 66.1279 73.9999L43.0891 73.8848C41.9489 73.8801 40.893 73.2675 40.2941 72.2633L38.4973 69.2553C37.6633 67.8596 37.8984 66.0493 39.0519 64.93Z" fill="#81C1EA"/>
<path d="M15.8816 25.8796H38.2226" stroke="#81C1EA" stroke-width="3.43707" stroke-miterlimit="10" stroke-linecap="round" stroke-linejoin="round"/>
<path d="M15.8816 39.8198H27.9114" stroke="#81C1EA" stroke-width="3.43707" stroke-miterlimit="10" stroke-linecap="round" stroke-linejoin="round"/>
<path d="M36.9337 63.5173H9.98701C7.78298 63.5173 6 61.589 6 59.2053V30.5264" stroke="#81C1EA" stroke-width="3.43707" stroke-miterlimit="10" stroke-linecap="round" stroke-linejoin="round"/>
<path d="M6 30.9911V12.5349C6 10.1512 7.78298 8.2229 9.98701 8.2229H44.1215C46.3212 8.2229 48.1085 10.1512 48.1085 12.5349V37.4963" stroke="white" stroke-width="3.43707" stroke-miterlimit="10" stroke-linecap="round" stroke-linejoin="round"/>
<path d="M68.1585 73.4963H42.5681C39.7055 73.4963 37.3633 70.9384 37.3633 67.8121V43.1805C37.3633 40.0542 39.7055 37.4963 42.5681 37.4963H68.1585C71.0211 37.4963 73.3633 40.0542 73.3633 43.1805V67.8121C73.3633 70.9384 71.0211 73.4963 68.1585 73.4963Z" stroke="white" stroke-width="3.43707" stroke-miterlimit="10" stroke-linecap="round" stroke-linejoin="round"/>
<path d="M48 53C50.2091 53 52 51.2091 52 49C52 46.7909 50.2091 45 48 45C45.7909 45 44 46.7909 44 49C44 51.2091 45.7909 53 48 53Z" fill="#81C1EA"/>
</svg>
