<svg width="234" height="34" viewBox="0 0 234 34" fill="none" xmlns="http://www.w3.org/2000/svg">
<path d="M164.526 3.02222H163.184V30.9778H164.526V3.02222Z" fill="#FCDA47"/>
<path fill-rule="evenodd" clip-rule="evenodd" d="M177.395 24.1169H175.585V7.83508H178.254C179.651 7.83508 181.095 7.8782 182.277 8.69741C183.48 9.53818 184.108 10.9664 184.108 12.4108C184.108 13.7259 183.571 15.0679 182.556 15.9086C181.461 16.8141 180.059 16.9865 178.705 16.9865H177.395V24.1169ZM177.395 15.305H178.598C180.601 15.305 182.298 14.7014 182.298 12.3677C182.298 9.71064 180.166 9.51662 178.061 9.51662H177.395V15.305ZM184.737 13.9684H186.74L190.312 21.2443L193.582 13.9684H195.543L188.077 29.8191H186.117L189.388 23.1684L184.737 13.9684ZM198.894 15.0679H198.851H198.84V13.9684H197.116V24.1169H198.84V18.8675C198.84 17.3369 199.055 15.2835 201.08 15.2835C202.74 15.2835 202.89 17.0997 202.89 18.3501V24.1169H204.614V18.7381C204.614 17.2075 204.829 15.2835 206.811 15.2835C208.578 15.2835 208.664 16.9057 208.664 18.2208V24.1169H210.388V17.9405C210.388 15.8062 209.743 13.6881 207.16 13.6881C205.935 13.6881 204.727 14.2487 204.125 15.3697C203.588 14.3133 202.509 13.6881 201.327 13.6881C200.291 13.6881 199.431 14.2271 198.894 15.0679ZM214.518 19.4064C214.539 21.2874 215.871 22.7965 217.832 22.7965C219.298 22.7965 220.243 21.9126 220.909 20.6999L222.37 21.5407C221.403 23.357 219.765 24.3918 217.697 24.3918C214.684 24.3918 212.746 22.0797 212.746 19.1639C212.746 16.1619 214.491 13.6774 217.654 13.6774C220.904 13.6774 222.628 16.3775 222.456 19.401H214.518V19.4064ZM220.651 17.9405C220.415 16.4745 219.185 15.2834 217.681 15.2834C216.199 15.2834 214.819 16.4691 214.604 17.9405H220.651ZM227.542 15.2834C228.165 15.2834 228.681 15.7792 228.917 16.3182L230.367 15.5637C229.916 14.5019 228.837 13.6827 227.677 13.6827C226.038 13.6827 224.664 14.8468 224.664 16.5553C224.664 18.2934 226.009 18.8575 227.239 19.3732C228.275 19.8073 229.229 20.2071 229.229 21.2442C229.229 22.1712 228.514 22.7964 227.591 22.7964C226.447 22.7964 225.953 22.1281 225.523 21.1796L223.998 21.8263C224.535 23.427 225.867 24.3971 227.569 24.3971C229.444 24.3971 230.99 23.0174 230.99 21.0933C230.99 19.3848 229.825 18.6734 228.643 18.1776C228.5 18.1169 228.356 18.0585 228.215 18.001C227.192 17.5843 226.296 17.2192 226.296 16.4044C226.296 15.7577 226.941 15.2834 227.542 15.2834Z" fill="#225AA7"/>
<path fill-rule="evenodd" clip-rule="evenodd" d="M4.12141 3.53992H37.4205C38.0328 3.53992 38.5269 4.04114 38.5323 4.65555V29.5067C38.5323 30.1211 38.0328 30.6224 37.4205 30.6224H4.12141C3.50913 30.6224 3.00965 30.1211 3.00965 29.5067V4.65555C3.00965 4.04114 3.50913 3.53992 4.12141 3.53992ZM93.986 20.301C93.0031 21.4813 91.5208 22.2358 89.8666 22.2358C86.9019 22.2358 84.5011 19.8267 84.5011 16.8517C84.5011 13.8766 86.9019 11.4675 89.8666 11.4675C91.5047 11.4675 92.9655 12.2059 93.9538 13.3646L95.8228 11.7208C94.362 10.0447 92.1975 8.98292 89.7806 8.98292C85.3766 8.98292 81.8103 12.5077 81.8103 16.8463C81.8103 21.1902 85.3819 24.715 89.7806 24.715C92.2136 24.715 94.3888 23.6371 95.8497 21.9448L93.986 20.301ZM52.3515 20.2848C52.3515 21.6915 51.3042 22.5646 49.7036 22.5646V22.5592H46.9914V17.9619H49.7949C51.4384 17.9619 52.3515 18.9213 52.3515 20.2848ZM51.9057 13.4994C51.9057 14.8144 50.9712 15.7091 49.4136 15.7091H46.9914V11.2897H49.3492C50.9712 11.2897 51.9057 12.1574 51.9057 13.4994ZM54.575 13.2784C54.575 10.7992 52.7972 9.0153 49.7735 9.0153H44.3436V24.839H50.1709C53.1034 24.839 55.0637 23.0065 55.0637 20.4627C55.0637 18.5871 53.909 17.1373 52.2387 16.69C53.5975 16.1996 54.575 14.9546 54.575 13.2784ZM62.5666 22.3922H62.5344H62.5021C60.4881 22.3922 59.097 20.8346 59.097 18.9375C59.097 17.0457 60.4881 15.4828 62.5021 15.4828H62.5344H62.5666C64.5806 15.4828 65.9717 17.0457 65.9717 18.9375C65.9717 20.8292 64.5806 22.3922 62.5666 22.3922ZM62.5344 13.0736C59.2313 13.0736 56.4975 15.4612 56.4975 18.9375C56.4975 22.4137 59.2367 24.8013 62.5344 24.8013C63.8019 24.8013 64.9888 24.4456 65.9717 23.815V24.8013H68.5765V18.9375C68.5765 15.4828 65.8374 13.0736 62.5344 13.0736ZM75.4459 13.1545C74.4362 13.1545 73.4963 13.4401 72.6853 13.9198V13.0736H70.0321V18.5871V20.0315V24.8013H72.6853V20.0315V18.5871C72.6853 17.0619 73.9206 15.8169 75.4459 15.8169C76.9659 15.8169 78.2065 17.0565 78.2065 18.5871V24.7959H80.8597V18.5871C80.8597 15.5906 78.4321 13.1545 75.4459 13.1545ZM154.547 23.6263H154.676C154.827 23.6263 154.95 23.5778 154.95 23.4539C154.95 23.3461 154.87 23.2706 154.698 23.2706C154.628 23.2706 154.574 23.276 154.547 23.2868V23.6263ZM154.542 24.3H154.268V23.1143C154.376 23.0928 154.526 23.0766 154.725 23.0766C154.95 23.0766 155.047 23.1143 155.138 23.1628C155.203 23.2113 155.251 23.3083 155.251 23.4215C155.251 23.5509 155.149 23.6533 155.004 23.6964V23.7126C155.122 23.7557 155.187 23.8419 155.219 24.0036C155.256 24.1868 155.278 24.2569 155.305 24.3H155.009M154.542 24.3V23.8203V24.3ZM154.542 23.8203H154.671H154.542ZM154.671 23.8203C154.821 23.8203 154.897 23.8796 154.918 24.009L154.671 23.8203ZM154.918 24.009C154.922 24.0227 154.925 24.0362 154.929 24.0493L154.918 24.009ZM154.929 24.0493C154.934 24.072 154.94 24.0938 154.945 24.1144L154.929 24.0493ZM153.812 23.6748C153.812 24.203 154.204 24.6234 154.735 24.6234C155.256 24.6234 155.638 24.203 155.638 23.6802C155.638 23.152 155.256 22.7263 154.73 22.7263C154.204 22.7263 153.812 23.1574 153.812 23.6748ZM155.939 23.6748C155.939 24.3485 155.412 24.8767 154.725 24.8767C154.048 24.8767 153.506 24.3485 153.506 23.6748C153.506 23.0173 154.048 22.4891 154.725 22.4891C155.412 22.4891 155.939 23.0173 155.939 23.6748ZM102.472 22.3382H102.504C104.491 22.3382 105.866 20.8022 105.866 18.9266C105.866 17.0565 104.491 15.515 102.504 15.515H102.472H102.44C100.447 15.515 99.0776 17.0565 99.0776 18.9266C99.0776 20.7968 100.453 22.3382 102.44 22.3382H102.472ZM96.5104 18.932C96.5157 15.4989 99.2173 13.1436 102.472 13.1436C105.732 13.1436 108.434 15.4989 108.434 18.932C108.434 22.3652 105.732 24.7204 102.472 24.7204C99.2119 24.7204 96.5104 22.3652 96.5104 18.932ZM128.273 22.3383H128.3C130.293 22.3383 131.668 20.7969 131.668 18.9214C131.668 17.0458 130.293 15.5044 128.3 15.5044H128.273H128.241C126.248 15.5044 124.874 17.0512 124.874 18.9214C124.874 20.7969 126.248 22.3383 128.241 22.3383H128.273ZM122.301 18.9214C122.301 15.5098 125.013 13.1276 128.273 13.1276C131.533 13.1276 134.24 15.4882 134.235 18.9267C134.235 22.3653 131.528 24.7205 128.268 24.7205C127.011 24.7205 125.84 24.3702 124.874 23.745V29.4364H122.301V18.9214ZM115.4 22.3383H115.367H115.335C113.343 22.3383 111.968 20.7969 111.968 18.9214C111.968 17.0512 113.343 15.5044 115.335 15.5044H115.367H115.4C117.392 15.5044 118.767 17.0458 118.767 18.9214C118.767 20.7969 117.392 22.3383 115.4 22.3383ZM115.367 13.1276C112.107 13.1276 109.395 15.5098 109.395 18.9214V29.4364H111.968V23.745C112.934 24.3702 114.111 24.7205 115.362 24.7205C118.622 24.7205 121.329 22.3653 121.329 18.9267C121.334 15.4882 118.633 13.1276 115.367 13.1276ZM140.578 15.3427C138.8 15.3427 137.468 16.744 137.468 17.7734H143.301C143.301 16.232 141.749 15.3427 140.578 15.3427ZM134.885 18.9214C134.89 15.4828 137.393 13.1276 140.417 13.1276C143.795 13.1276 145.943 15.4882 145.943 18.916C145.943 19.1531 145.927 19.3795 145.906 19.6004H137.414C137.414 21.2604 138.746 22.4353 140.728 22.4353C141.98 22.4353 142.989 21.9611 143.65 21.1957L145.165 22.7156C144.155 24.1492 142.237 24.7151 140.417 24.7151C137.393 24.7151 134.885 22.3599 134.885 18.9214ZM149.483 18.9213V9.16084H146.91V18.9213C146.915 22.3221 149.558 24.6665 152.775 24.7151V22.3329C150.825 22.3005 149.483 20.7753 149.483 18.9213Z" fill="#225AA7"/>
<path d="M13.8641 22.031C13.0961 22.031 12.473 21.4059 12.473 20.6352C12.473 19.8645 13.0961 19.2339 13.8641 19.2339C14.6321 19.2339 15.2551 19.8591 15.2551 20.6352C15.2605 21.4059 14.6321 22.031 13.8641 22.031ZM8.53086 18.3662C8.53086 17.5955 9.15388 16.9649 9.92191 16.9649C10.6899 16.9649 11.313 17.5901 11.313 18.3662C11.313 19.1369 10.6899 19.7674 9.92191 19.7674C9.15388 19.7621 8.53086 19.1369 8.53086 18.3662ZM13.8641 14.6959C14.6321 14.6959 15.2551 15.3211 15.2551 16.0918C15.2551 16.8625 14.6321 17.4877 13.8641 17.4877C13.0961 17.4877 12.473 16.8625 12.473 16.0918C12.473 15.3265 13.0961 14.6959 13.8641 14.6959ZM34.7459 17.0026H16.861C16.9469 16.717 16.9953 16.4151 16.9953 16.0972C16.9953 14.3671 15.5935 12.9604 13.8695 12.9604C12.3979 12.9604 11.1626 13.9899 10.8296 15.3642C10.5449 15.278 10.2388 15.2294 9.92191 15.2294C8.19787 15.2294 6.79609 16.6361 6.79609 18.3662C6.79609 20.0962 8.19787 21.5029 9.92191 21.5029C10.2388 21.5029 10.5396 21.4544 10.8296 21.3681C11.1626 22.7425 12.3925 23.7719 13.8695 23.7719C15.5935 23.7719 16.9953 22.3652 16.9953 20.6352C16.9953 20.3172 16.9469 20.0154 16.861 19.7297H28.9883V23.497H30.4385V21.6161H31.8402V23.497H33.2904V19.7297H34.7405V17.0026H34.7459Z" fill="#FCDA47"/>
</svg>
