<svg width="234" height="34" viewBox="0 0 234 34" fill="none" xmlns="http://www.w3.org/2000/svg">
<path d="M164.526 3H163.184V30.9556H164.526V3Z" fill="#FCDA47"/>
<path fill-rule="evenodd" clip-rule="evenodd" d="M177.395 24.0947H175.585V7.81287H178.254C179.651 7.81287 181.095 7.85598 182.277 8.67519C183.48 9.51596 184.108 10.9442 184.108 12.3886C184.108 13.7036 183.571 15.0456 182.556 15.8864C181.461 16.7918 180.059 16.9643 178.705 16.9643H177.395V24.0947ZM177.395 15.2828H178.598C180.601 15.2828 182.298 14.6791 182.298 12.3455C182.298 9.68843 180.166 9.4944 178.061 9.4944H177.395V15.2828ZM184.737 13.9462H186.74L190.312 21.2221L193.582 13.9462H195.543L188.077 29.7969H186.117L189.388 23.1462L184.737 13.9462ZM198.894 15.0457H198.851H198.84V13.9462H197.116V24.0947H198.84V18.8453C198.84 17.3146 199.055 15.2612 201.08 15.2612C202.74 15.2612 202.89 17.0775 202.89 18.3279V24.0947H204.614V18.7159C204.614 17.1853 204.829 15.2612 206.811 15.2612C208.578 15.2612 208.664 16.8835 208.664 18.1985V24.0947H210.388V17.9183C210.388 15.784 209.743 13.6659 207.16 13.6659C205.935 13.6659 204.727 14.2264 204.125 15.3475C203.588 14.2911 202.509 13.6659 201.327 13.6659C200.291 13.6659 199.431 14.2049 198.894 15.0457ZM214.518 19.3842C214.539 21.2652 215.871 22.7742 217.832 22.7742C219.298 22.7742 220.243 21.8904 220.909 20.6777L222.37 21.5185C221.403 23.3348 219.765 24.3695 217.697 24.3695C214.684 24.3695 212.746 22.0574 212.746 19.1417C212.746 16.1397 214.491 13.6551 217.654 13.6551C220.904 13.6551 222.628 16.3553 222.456 19.3788H214.518V19.3842ZM220.651 17.9183C220.415 16.4523 219.185 15.2612 217.681 15.2612C216.199 15.2612 214.819 16.4469 214.604 17.9183H220.651ZM227.542 15.2612C228.165 15.2612 228.681 15.757 228.917 16.296L230.367 15.5414C229.916 14.4797 228.837 13.6605 227.677 13.6605C226.038 13.6605 224.664 14.8246 224.664 16.5331C224.664 18.2712 226.009 18.8353 227.239 19.351C228.275 19.7851 229.229 20.1849 229.229 21.222C229.229 22.149 228.514 22.7742 227.591 22.7742C226.447 22.7742 225.953 22.1059 225.523 21.1573L223.998 21.8041C224.535 23.4048 225.867 24.3749 227.569 24.3749C229.444 24.3749 230.99 22.9952 230.99 21.0711C230.99 19.3626 229.825 18.6512 228.643 18.1554C228.5 18.0947 228.356 18.0362 228.215 17.9788C227.192 17.562 226.296 17.1969 226.296 16.3822C226.296 15.7355 226.941 15.2612 227.542 15.2612Z" fill="white"/>
<path fill-rule="evenodd" clip-rule="evenodd" d="M89.8666 22.2136C91.5208 22.2136 93.0031 21.459 93.986 20.2787L95.8497 21.9225C94.3888 23.6149 92.2136 24.6928 89.7806 24.6928C85.3819 24.6928 81.8103 21.168 81.8103 16.824C81.8103 12.4855 85.3766 8.96069 89.7806 8.96069C92.1975 8.96069 94.3619 10.0224 95.8228 11.6986L93.9538 13.3424C92.9655 12.1836 91.5047 11.4453 89.8666 11.4453C86.9019 11.4453 84.5011 13.8544 84.5011 16.8294C84.5011 19.8045 86.9019 22.2136 89.8666 22.2136ZM49.7036 22.5424C51.3041 22.5424 52.3515 21.6693 52.3515 20.2626C52.3515 18.899 51.4384 17.9397 49.7949 17.9397H46.9914V22.537H49.7036V22.5424ZM49.4136 15.6869C50.9712 15.6869 51.9057 14.7922 51.9057 13.4772C51.9057 12.1352 50.9712 11.2675 49.3492 11.2675H46.9914V15.6869H49.4136ZM49.7735 8.99307C52.7972 8.99307 54.575 10.777 54.575 13.2562C54.575 14.9323 53.5975 16.1773 52.2387 16.6678C53.909 17.1151 55.0637 18.5649 55.0637 20.4405C55.0637 22.9843 53.1034 24.8168 50.1709 24.8168H44.3436V8.99307H49.7735ZM62.5344 22.3699H62.5666C64.5806 22.3699 65.9717 20.807 65.9717 18.9152C65.9717 17.0235 64.5806 15.4605 62.5666 15.4605H62.5344H62.5021C60.4881 15.4605 59.097 17.0235 59.097 18.9152C59.097 20.8124 60.4881 22.3699 62.5021 22.3699H62.5344ZM56.4975 18.9152C56.4975 15.439 59.2313 13.0514 62.5344 13.0514C65.8374 13.0514 68.5765 15.4605 68.5765 18.9152V24.7791H65.9717V23.7928C64.9888 24.4233 63.8019 24.7791 62.5344 24.7791C59.2367 24.7791 56.4975 22.3915 56.4975 18.9152ZM72.6853 13.8976C73.4963 13.4179 74.4362 13.1323 75.4459 13.1323C78.4321 13.1323 80.8597 15.5683 80.8597 18.5649V24.7737H78.2065V18.5649C78.2065 17.0343 76.9659 15.7947 75.4459 15.7947C73.9206 15.7947 72.6853 17.0397 72.6853 18.5649V20.0093V24.7791H70.0321V20.0093V18.5649V13.0514H72.6853V13.8976ZM154.676 23.6041H154.547V23.2645C154.574 23.2538 154.628 23.2484 154.698 23.2484C154.87 23.2484 154.95 23.3238 154.95 23.4316C154.95 23.5556 154.827 23.6041 154.676 23.6041ZM154.268 24.2778H154.542V23.7981H154.671C154.821 23.7981 154.897 23.8574 154.918 23.9867C154.928 24.0244 154.937 24.0597 154.945 24.0921L154.945 24.0922C154.966 24.1802 154.982 24.2463 155.009 24.2778H155.305C155.278 24.2347 155.256 24.1646 155.219 23.9814C155.187 23.8197 155.122 23.7334 155.004 23.6903V23.6742C155.149 23.631 155.251 23.5286 155.251 23.3993C155.251 23.2861 155.203 23.1891 155.138 23.1406C155.047 23.0921 154.95 23.0544 154.725 23.0544C154.526 23.0544 154.376 23.0705 154.268 23.0921V24.2778ZM154.735 24.6012C154.204 24.6012 153.812 24.1808 153.812 23.6526C153.812 23.1352 154.204 22.704 154.73 22.704C155.256 22.704 155.638 23.1298 155.638 23.658C155.638 24.1808 155.256 24.6012 154.735 24.6012ZM154.725 24.8545C155.412 24.8545 155.939 24.3263 155.939 23.6526C155.939 22.9951 155.412 22.4669 154.725 22.4669C154.048 22.4669 153.506 22.9951 153.506 23.6526C153.506 24.3263 154.048 24.8545 154.725 24.8545ZM102.504 22.316H102.472H102.44C100.453 22.316 99.0776 20.7746 99.0776 18.9044C99.0776 17.0342 100.447 15.4928 102.44 15.4928H102.472H102.504C104.491 15.4928 105.866 17.0342 105.866 18.9044C105.866 20.78 104.491 22.316 102.504 22.316ZM102.472 13.1214C99.2173 13.1214 96.5157 15.4766 96.5104 18.9098C96.5104 22.3429 99.2119 24.6981 102.472 24.6981C105.732 24.6981 108.434 22.3429 108.434 18.9098C108.434 15.4766 105.732 13.1214 102.472 13.1214ZM128.3 22.3161H128.273H128.241C126.248 22.3161 124.874 20.7747 124.874 18.8991C124.874 17.029 126.248 15.4822 128.241 15.4822H128.273H128.3C130.293 15.4822 131.668 17.0236 131.668 18.8991C131.668 20.7747 130.293 22.3161 128.3 22.3161ZM128.273 13.1054C125.013 13.1054 122.301 15.4875 122.301 18.8991V29.4141H124.874V23.7228C125.84 24.348 127.011 24.6983 128.268 24.6983C131.528 24.6983 134.235 22.343 134.235 18.9045C134.24 15.466 131.533 13.1054 128.273 13.1054ZM115.367 22.3161H115.4C117.392 22.3161 118.767 20.7747 118.767 18.8991C118.767 17.0236 117.392 15.4822 115.4 15.4822H115.367H115.335C113.343 15.4822 111.968 17.029 111.968 18.8991C111.968 20.7747 113.343 22.3161 115.335 22.3161H115.367ZM109.395 18.8991C109.395 15.4875 112.107 13.1054 115.367 13.1054C118.633 13.1054 121.334 15.466 121.329 18.9045C121.329 22.343 118.622 24.6983 115.362 24.6983C114.111 24.6983 112.934 24.348 111.968 23.7228V29.4141H109.395V18.8991ZM137.468 17.7512C137.468 16.7217 138.8 15.3205 140.578 15.3205C141.749 15.3205 143.301 16.2097 143.301 17.7512H137.468ZM140.417 13.1054C137.393 13.1054 134.89 15.4606 134.885 18.8991C134.885 22.3377 137.393 24.6929 140.417 24.6929C142.237 24.6929 144.155 24.127 145.165 22.6934L143.65 21.1735C142.989 21.9388 141.98 22.4131 140.728 22.4131C138.746 22.4131 137.414 21.2382 137.414 19.5782H145.906C145.927 19.3572 145.943 19.1309 145.943 18.8937C145.943 15.466 143.795 13.1054 140.417 13.1054ZM149.483 9.13861V18.8991C149.483 20.7531 150.825 22.2783 152.775 22.3106V24.6928C149.558 24.6443 146.915 22.2999 146.91 18.8991V9.13861H149.483Z" fill="white"/>
<path fill-rule="evenodd" clip-rule="evenodd" d="M4.1214 3.5177H37.4205C38.0328 3.5177 38.5269 4.01893 38.5323 4.63334V29.4845C38.5323 30.0989 38.0328 30.6002 37.4205 30.6002H4.1214C3.50913 30.6002 3.00964 30.0989 3.00964 29.4845V4.63334C3.00964 4.01893 3.50913 3.5177 4.1214 3.5177ZM12.473 20.6129C12.473 21.3836 13.0961 22.0088 13.8641 22.0088C14.6321 22.0088 15.2605 21.3836 15.2551 20.6129C15.2551 19.8368 14.6321 19.2117 13.8641 19.2117C13.0961 19.2117 12.473 19.8422 12.473 20.6129ZM9.9219 16.9427C9.15387 16.9427 8.53086 17.5732 8.53086 18.3439C8.53086 19.1146 9.15387 19.7398 9.9219 19.7452C10.6899 19.7452 11.3129 19.1146 11.3129 18.3439C11.3129 17.5678 10.6899 16.9427 9.9219 16.9427ZM15.2551 16.0696C15.2551 15.2989 14.6321 14.6737 13.8641 14.6737C13.0961 14.6737 12.473 15.3042 12.473 16.0696C12.473 16.8403 13.0961 17.4654 13.8641 17.4654C14.6321 17.4654 15.2551 16.8403 15.2551 16.0696ZM16.861 16.9804H34.7405V19.7075H33.2904V23.4748H31.8402V21.5938H30.4384V23.4748H28.9883V19.7075H16.861C16.9469 19.9931 16.9953 20.295 16.9953 20.6129C16.9953 22.343 15.5935 23.7497 13.8695 23.7497C12.3925 23.7497 11.1626 22.7203 10.8296 21.3459C10.5395 21.4321 10.2388 21.4807 9.9219 21.4807C8.19787 21.4807 6.79608 20.074 6.79608 18.3439C6.79608 16.6139 8.19787 15.2072 9.9219 15.2072C10.2388 15.2072 10.5449 15.2557 10.8296 15.342C11.1626 13.9676 12.3979 12.9382 13.8695 12.9382C15.5935 12.9382 16.9953 14.3449 16.9953 16.0749C16.9953 16.3929 16.9469 16.6947 16.861 16.9804Z" fill="white"/>
</svg>
