<svg width="172" height="34" viewBox="0 0 172 34" fill="none" xmlns="http://www.w3.org/2000/svg">
<path fill-rule="evenodd" clip-rule="evenodd" d="M96.5041 22.6142C98.2468 22.6142 99.8085 21.8226 100.844 20.5843L102.807 22.3089C101.268 24.0843 98.9767 25.2152 96.4136 25.2152C91.7795 25.2152 88.0168 21.5173 88.0168 16.9599C88.0168 12.4082 91.7739 8.71033 96.4136 8.71033C98.9597 8.71033 101.24 9.82422 102.779 11.5827L100.81 13.3073C99.7689 12.0916 98.2298 11.3169 96.5041 11.3169C93.3808 11.3169 90.8516 13.8444 90.8516 16.9656C90.8516 20.0867 93.3808 22.6142 96.5041 22.6142ZM54.1923 22.9592C55.8784 22.9592 56.9818 22.0432 56.9818 20.5674C56.9818 19.1369 56.0199 18.1304 54.2885 18.1304H51.3349V22.9535H54.1923V22.9592ZM53.8868 15.767C55.5276 15.767 56.5122 14.8284 56.5122 13.4487C56.5122 12.0408 55.5276 11.1305 53.8189 11.1305H51.3349V15.767H53.8868ZM54.2659 8.74435C57.4514 8.74435 59.3243 10.6159 59.3243 13.2169C59.3243 14.9754 58.2945 16.2815 56.863 16.796C58.6227 17.2653 59.8392 18.7863 59.8392 20.754C59.8392 23.4229 57.7739 25.3453 54.6846 25.3453H48.5454V8.74435H54.2659ZM67.7095 22.7783H67.7435C69.8653 22.7783 71.3307 21.1385 71.3307 19.1539C71.3307 17.1692 69.8653 15.5295 67.7435 15.5295H67.7095H67.6756C65.5537 15.5295 64.0883 17.1692 64.0883 19.1539C64.0883 21.1442 65.5537 22.7783 67.6756 22.7783H67.7095ZM61.3497 19.1539C61.3497 15.5069 64.2297 13.002 67.7095 13.002C71.1893 13.002 74.075 15.5295 74.075 19.1539V25.3057H71.3307V24.271C70.2953 24.9326 69.0448 25.3057 67.7095 25.3057C64.2354 25.3057 61.3497 22.8009 61.3497 19.1539ZM78.4036 13.8898C79.258 13.3865 80.2482 13.0868 81.3119 13.0868C84.4578 13.0868 87.0153 15.6426 87.0153 18.7864V25.3001H84.2202V18.7864C84.2202 17.1805 82.9132 15.8801 81.3119 15.8801C79.705 15.8801 78.4036 17.1862 78.4036 18.7864V20.3017V25.3057H75.6084V20.3017V18.7864V13.002H78.4036V13.8898ZM164.781 24.073H164.646V23.7168C164.674 23.7054 164.731 23.6998 164.804 23.6998C164.985 23.6998 165.07 23.779 165.07 23.892C165.07 24.0221 164.94 24.073 164.781 24.073ZM164.351 24.7798H164.64V24.2765H164.776C164.934 24.2765 165.013 24.3387 165.036 24.4744C165.047 24.5139 165.056 24.551 165.064 24.5849C165.086 24.6773 165.103 24.7467 165.132 24.7798H165.443C165.415 24.7345 165.393 24.661 165.353 24.4688C165.319 24.2991 165.251 24.2087 165.127 24.1634V24.1465C165.279 24.1012 165.387 23.9938 165.387 23.8581C165.387 23.7394 165.336 23.6376 165.268 23.5867C165.172 23.5358 165.07 23.4962 164.832 23.4962C164.623 23.4962 164.465 23.5132 164.351 23.5358V24.7798ZM164.844 25.119C164.284 25.119 163.87 24.678 163.87 24.1239C163.87 23.5811 164.284 23.1287 164.838 23.1287C165.393 23.1287 165.794 23.5754 165.794 24.1295C165.794 24.678 165.393 25.119 164.844 25.119ZM164.832 25.3848C165.557 25.3848 166.111 24.8306 166.111 24.1239C166.111 23.434 165.557 22.8799 164.832 22.8799C164.119 22.8799 163.548 23.434 163.548 24.1239C163.548 24.8306 164.119 25.3848 164.832 25.3848ZM109.818 22.7216H109.784H109.75C107.656 22.7216 106.208 21.1045 106.208 19.1424C106.208 17.1804 107.651 15.5633 109.75 15.5633H109.784H109.818C111.911 15.5633 113.36 17.1804 113.36 19.1424C113.36 21.1101 111.911 22.7216 109.818 22.7216ZM109.784 13.0754C106.355 13.0754 103.509 15.5463 103.503 19.1481C103.503 22.7499 106.349 25.2208 109.784 25.2208C113.218 25.2208 116.065 22.7499 116.065 19.1481C116.065 15.5463 113.218 13.0754 109.784 13.0754ZM136.994 22.7218H136.966H136.932C134.833 22.7218 133.384 21.1047 133.384 19.137C133.384 17.175 134.833 15.5522 136.932 15.5522H136.966H136.994C139.093 15.5522 140.542 17.1693 140.542 19.137C140.542 21.1047 139.093 22.7218 136.994 22.7218ZM136.966 13.0587C133.531 13.0587 130.674 15.5579 130.674 19.137V30.1685H133.384V24.1976C134.402 24.8535 135.636 25.221 136.96 25.221C140.395 25.221 143.246 22.7501 143.246 19.1427C143.252 15.5352 140.4 13.0587 136.966 13.0587ZM123.369 22.7218H123.403C125.502 22.7218 126.951 21.1047 126.951 19.137C126.951 17.1693 125.502 15.5522 123.403 15.5522H123.369H123.335C121.236 15.5522 119.788 17.175 119.788 19.137C119.788 21.1047 121.236 22.7218 123.335 22.7218H123.369ZM117.077 19.137C117.077 15.5579 119.935 13.0587 123.369 13.0587C126.809 13.0587 129.655 15.5352 129.65 19.1427C129.65 22.7501 126.798 25.221 123.364 25.221C122.045 25.221 120.806 24.8535 119.788 24.1976V30.1685H117.077V19.137ZM146.653 17.9327C146.653 16.8527 148.056 15.3826 149.929 15.3826C151.162 15.3826 152.797 16.3155 152.797 17.9327H146.653ZM149.759 13.0587C146.573 13.0587 143.937 15.5296 143.931 19.137C143.931 22.7444 146.573 25.2154 149.759 25.2154C151.677 25.2154 153.697 24.6217 154.761 23.1176L153.165 21.5231C152.469 22.326 151.405 22.8236 150.087 22.8236C147.999 22.8236 146.596 21.591 146.596 19.8495H155.542C155.564 19.6176 155.581 19.3802 155.581 19.1314C155.581 15.5352 153.318 13.0587 149.759 13.0587ZM159.31 8.89697V19.1369C159.31 21.0819 160.724 22.6821 162.778 22.716V25.2152C159.389 25.1643 156.605 22.7047 156.6 19.1369V8.89697H159.31Z" fill="white"/>
<path fill-rule="evenodd" clip-rule="evenodd" d="M6.158 3H40.842C41.4797 3 41.9944 3.53672 42 4.19463V30.8054C42 31.4633 41.4797 32 40.842 32H6.158C5.52026 32 5 31.4633 5 30.8054V4.19463C5 3.53672 5.52026 3 6.158 3ZM14.2965 20.5184C14.2965 21.3739 14.9875 22.0678 15.8394 22.0678C16.6912 22.0678 17.3882 21.3739 17.3822 20.5184C17.3822 19.657 16.6912 18.9631 15.8394 18.9631C14.9875 18.9631 14.2965 19.663 14.2965 20.5184ZM11.4669 16.4447C10.6151 16.4447 9.9241 17.1446 9.9241 18C9.9241 18.8554 10.6151 19.5494 11.4669 19.5553C12.3188 19.5553 13.0098 18.8554 13.0098 18C13.0098 17.1386 12.3188 16.4447 11.4669 16.4447ZM17.3822 15.4756C17.3822 14.6201 16.6912 13.9262 15.8394 13.9262C14.9875 13.9262 14.2965 14.6261 14.2965 15.4756C14.2965 16.331 14.9875 17.0249 15.8394 17.0249C16.6912 17.0249 17.3822 16.331 17.3822 15.4756ZM19.1633 16.4865H38.994V19.5135H37.3857V23.6949H35.7773V21.6072H34.2225V23.6949H32.6141V19.5135H19.1633C19.2586 19.8305 19.3123 20.1655 19.3123 20.5184C19.3123 22.4387 17.7575 24 15.8453 24C14.2071 24 12.843 22.8574 12.4737 21.332C12.152 21.4277 11.8184 21.4816 11.4669 21.4816C9.55477 21.4816 8 19.9202 8 18C8 16.0798 9.55477 14.5184 11.4669 14.5184C11.8184 14.5184 12.158 14.5723 12.4737 14.668C12.843 13.1426 14.2131 12 15.8453 12C17.7575 12 19.3123 13.5613 19.3123 15.4816C19.3123 15.8345 19.2586 16.1695 19.1633 16.4865Z" fill="white"/>
</svg>
