<svg width="330" height="462" viewBox="0 0 330 462" fill="none" xmlns="http://www.w3.org/2000/svg">
<path d="M199.567 364.93C182.974 348.152 182.974 320.948 199.567 304.17L418.941 82.3392L539.116 82.3391L259.655 364.93C243.062 381.709 216.16 381.709 199.567 364.93Z" fill="#002A61"/>
<path d="M129.984 224.796C111.459 206.063 111.459 175.691 129.985 156.959L163.527 123.042L297.696 123.042L197.069 224.796C178.544 243.528 148.509 243.528 129.984 224.796Z" fill="#81C1EA"/>
<path d="M48.7927 412.257C21.8452 385.008 21.8452 340.828 48.7927 313.579L261.313 98.6783L408.216 85.6546L456.484 98.6782L146.378 412.257C119.43 439.506 75.7401 439.506 48.7927 412.257Z" fill="#225AA7"/>
<path d="M226.247 306.31L265.845 266.289" stroke="#338CBF" stroke-width="4" stroke-linecap="round"/>
<path d="M203.035 329.77L238.536 293.89" stroke="#81C1EA" stroke-width="4" stroke-linecap="round"/>
<path d="M122.99 290.558L159.99 253.144" stroke="#81C1EA" stroke-width="4" stroke-linecap="round"/>
<path d="M146.99 266.289L173.99 238.987" stroke="#338CBF" stroke-width="4" stroke-linecap="round"/>
<path d="M208.899 268.008L249.554 226.919" stroke="#338CBF" stroke-width="4" stroke-linecap="round"/>
<path d="M233.918 242.722L263.627 212.696" stroke="#81C1EA" stroke-width="4" stroke-linecap="round"/>
<path d="M113.441 364.149L166.37 310.656" stroke="#81C1EA" stroke-width="4" stroke-linecap="round"/>
<path d="M148.048 329.173L186.727 290.081" stroke="#DAE0E9" stroke-width="4" stroke-linecap="round"/>
</svg>
