<svg width="80" height="80" viewBox="0 0 80 80" fill="none" xmlns="http://www.w3.org/2000/svg">
<path d="M49.4692 13.0384C47.0381 12.1167 44.4556 11.5245 41.7707 11.3152C25.0514 10.0106 11.0971 23.257 11.2262 39.727C11.3464 55.1595 24.6106 67.7736 40.0432 67.7736" stroke="#FFBE12" stroke-width="4" stroke-miterlimit="10" stroke-linecap="round" stroke-linejoin="round"/>
<path d="M40.0432 67.7737H61.411C63.3701 67.7737 64.2295 65.298 62.6889 64.0869L60.5517 62.4039C59.3628 61.5401 59.1936 59.8303 60.1955 58.7572C65.3738 53.196 68.3392 45.5465 67.6802 37.2069C66.8075 26.1645 59.4563 16.8275 49.4648 13.0428" stroke="#225AA7" stroke-width="4" stroke-miterlimit="10" stroke-linecap="round" stroke-linejoin="round"/>
<ellipse cx="28.146" cy="41.5036" rx="4.0073" ry="4.0073" fill="#338CBF"/>
<circle cx="40.6131" cy="41.5036" r="4.0073" fill="#338CBF"/>
<ellipse cx="53.0803" cy="41.5036" rx="4.00729" ry="4.0073" fill="#338CBF"/>
</svg>
