<svg width="48" height="48" viewBox="0 0 48 48" fill="none" xmlns="http://www.w3.org/2000/svg">
<path d="M29.6817 7.82348C28.223 7.27047 26.6735 6.91515 25.0626 6.78959C15.031 6.00683 6.65841 13.9546 6.73588 23.8366C6.80802 33.0962 14.7665 40.6646 24.026 40.6646" stroke="#338CBF" stroke-width="2.5" stroke-miterlimit="10" stroke-linecap="round" stroke-linejoin="round"/>
<path d="M24.0259 40.6647H36.8466C38.022 40.6647 38.5376 39.1793 37.6133 38.4526L36.331 37.4428C35.6177 36.9245 35.5161 35.8986 36.1172 35.2548C39.2242 31.9181 41.0035 27.3284 40.6081 22.3246C40.0845 15.6992 35.6738 10.097 29.6788 7.82617" stroke="#225AA7" stroke-width="2.5" stroke-miterlimit="10" stroke-linecap="round" stroke-linejoin="round"/>
<ellipse cx="16.8878" cy="24.9024" rx="2.40438" ry="2.40438" fill="#225AA7"/>
<ellipse cx="24.3678" cy="24.9024" rx="2.40438" ry="2.40438" fill="#225AA7"/>
<ellipse cx="31.8482" cy="24.9024" rx="2.40438" ry="2.40438" fill="#225AA7"/>
</svg>
