<svg width="24" height="24" viewBox="0 0 24 24" fill="none" xmlns="http://www.w3.org/2000/svg">
<path fill-rule="evenodd" clip-rule="evenodd" d="M6 2C4.89543 2 4 2.89543 4 4V20C4 21.1046 4.89543 22 6 22H18C19.1046 22 20 21.1046 20 20V9C20 8.73478 19.8946 8.48043 19.7071 8.29289L13.7071 2.29289C13.5196 2.10536 13.2652 2 13 2H6ZM6 4L12 4V8C12 9.10457 12.8954 10 14 10H18V20H6V4ZM16.5858 8L14 5.41421V8H16.5858ZM10.5 11C10.5 10.4477 10.0523 10 9.5 10C8.94772 10 8.5 10.4477 8.5 11V17C8.5 17.5523 8.94772 18 9.5 18C10.0523 18 10.5 17.5523 10.5 17V11ZM15.5 13C15.5 12.4477 15.0523 12 14.5 12C13.9477 12 13.5 12.4477 13.5 13V17C13.5 17.5523 13.9477 18 14.5 18C15.0523 18 15.5 17.5523 15.5 17V13Z" fill="#225AA7"/>
</svg>
