<svg width="80" height="80" viewBox="0 0 80 80" fill="none" xmlns="http://www.w3.org/2000/svg">
<path d="M59.5957 22.4486H71.7365C73.5397 22.4486 75.0002 23.8979 75.0002 25.6872V64.5502C75.0002 66.3395 73.5397 67.7888 71.7365 67.7888H20.8845" stroke="white" stroke-width="4" stroke-miterlimit="10" stroke-linecap="round" stroke-linejoin="round"/>
<path d="M20.352 67.7893H6.70757C4.84333 67.7893 3.33337 66.337 3.33337 64.5439V15.4565C3.33337 13.6634 4.84333 12.2111 6.70757 12.2111H31.3223C32.5666 12.2111 33.7096 12.8683 34.2959 13.9231L38.037 20.6411C38.6233 21.6959 39.7663 22.3531 41.0105 22.3531H60.3742" stroke="#81C1EA" stroke-width="4" stroke-miterlimit="10" stroke-linecap="round" stroke-linejoin="round"/>
<path d="M31.1221 40L38.435 32.6871L45.7479 40" stroke="#FFBE12" stroke-width="4" stroke-miterlimit="10" stroke-linecap="round" stroke-linejoin="round"/>
<path d="M38.4358 35.6123V50.2382" stroke="#FFBE12" stroke-width="4" stroke-miterlimit="10" stroke-linecap="round" stroke-linejoin="round"/>
<path d="M26.7349 50.238V56.0883H38.2822H50.1362V50.238" stroke="white" stroke-width="4" stroke-miterlimit="10" stroke-linecap="round" stroke-linejoin="round"/>
</svg>
