<svg width="80" height="80" viewBox="0 0 80 80" fill="none" xmlns="http://www.w3.org/2000/svg">
<path d="M26.2856 36.3455H46.3998" stroke="white" stroke-width="4" stroke-miterlimit="10" stroke-linecap="round" stroke-linejoin="round"/>
<path d="M26.2856 50.0439H46.3998" stroke="white" stroke-width="4" stroke-miterlimit="10" stroke-linecap="round" stroke-linejoin="round"/>
<path d="M59 41V68.7866C59 71.1112 57.052 73 54.6441 73H17.3559C14.948 72.9955 13 71.1112 13 68.7821V59.0522" stroke="white" stroke-width="4" stroke-miterlimit="10" stroke-linecap="round" stroke-linejoin="round"/>
<path d="M13 59V23.2043C13 20.8802 14.9478 19 17.3555 19H54.6445C57.0475 19 59 20.8802 59 23.2043V40.9866" stroke="#81C1EA" stroke-width="4" stroke-miterlimit="10" stroke-linecap="round" stroke-linejoin="round"/>
<path d="M23.6245 13.0586H48.4163" stroke="#81C1EA" stroke-width="4" stroke-miterlimit="10" stroke-linecap="round" stroke-linejoin="round"/>
<path d="M31.1083 11.6898C31.1083 8.91333 33.4097 6.66659 36.2538 6.66659C39.0978 6.66659 41.3993 8.91333 41.3993 11.6898" stroke="#81C1EA" stroke-width="4" stroke-miterlimit="10" stroke-linecap="round" stroke-linejoin="round"/>
<path d="M36.6665 63.5625L46.1457 72.3125L65.104 52" stroke="#FFBE12" stroke-width="4" stroke-miterlimit="10" stroke-linecap="round" stroke-linejoin="round"/>
</svg>
