<svg width="25" height="26" viewBox="0 0 25 26" fill="none" xmlns="http://www.w3.org/2000/svg">
<path fill-rule="evenodd" clip-rule="evenodd" d="M0 3.05527C0 1.36862 1.34479 0 3.00208 0C4.65833 0 6.00312 1.36862 6.00417 3.05527C6.00417 4.74192 4.65937 6.13916 3.00208 6.13916C1.34479 6.13916 0 4.74192 0 3.05527ZM24.9937 25.4277V25.4267H25V16.1007C25 11.5384 24.0344 8.02393 18.7906 8.02393C16.2698 8.02393 14.5782 9.43098 13.8875 10.7649H13.8146V8.44986H8.84277V25.4267H14.0198V17.0204C14.0198 14.807 14.4323 12.6668 17.1271 12.6668C19.7823 12.6668 19.8219 15.1927 19.8219 17.1624V25.4277H24.9937ZM0.412903 8.45215H5.59619V25.4277H0.412903V8.45215Z" fill="white"/>
</svg>
