<svg width="24" height="24" viewBox="0 0 24 24" fill="none" xmlns="http://www.w3.org/2000/svg">
<path fill-rule="evenodd" clip-rule="evenodd" d="M0 6C0 5.44772 0.447715 5 1 5H23C23.5523 5 24 5.44772 24 6C24 6.55228 23.5523 7 23 7H1C0.447716 7 0 6.55228 0 6ZM0 12C0 11.4477 0.447715 11 1 11H15C15.5523 11 16 11.4477 16 12C16 12.5523 15.5523 13 15 13H1C0.447715 13 0 12.5523 0 12ZM1 17C0.447715 17 0 17.4477 0 18C0 18.5523 0.447716 19 1 19H23C23.5523 19 24 18.5523 24 18C24 17.4477 23.5523 17 23 17H1Z" fill="#225AA7"/>
</svg>
