<svg width="80" height="80" viewBox="0 0 80 80" fill="none" xmlns="http://www.w3.org/2000/svg">
<path d="M21.5027 73.2348C16.799 73.2348 12.989 69.5188 12.989 64.9312V11.3036C12.989 6.71597 16.799 3 21.5027 3H42.5291" stroke="#338CBF" stroke-width="4" stroke-miterlimit="10" stroke-linecap="round" stroke-linejoin="round"/>
<path d="M42.5289 3H52.2581C56.9619 3 60.7719 6.71597 60.7719 11.3036V64.9312C60.7719 69.5188 56.9619 73.2348 52.2581 73.2348H21.5026" stroke="#81C1EA" stroke-width="4" stroke-miterlimit="10" stroke-linecap="round" stroke-linejoin="round"/>
<path d="M30.2769 64.4384H42.9836" stroke="#225AA7" stroke-width="4" stroke-miterlimit="10" stroke-linecap="round" stroke-linejoin="round"/>
<path d="M37.1357 14.4666C38.6786 14.4666 39.9294 13.1865 39.9294 11.6075C39.9294 10.0284 38.6786 8.74829 37.1357 8.74829C35.5929 8.74829 34.3421 10.0284 34.3421 11.6075C34.3421 13.1865 35.5929 14.4666 37.1357 14.4666Z" fill="#225AA7"/>
</svg>
