<svg width="80" height="80" viewBox="0 0 80 80" fill="none" xmlns="http://www.w3.org/2000/svg">
<path d="M40 63.3333H17.3813C10.5417 63.3333 5 57.7917 5 50.9521V29.0479C5 22.2083 10.5417 16.6667 17.3813 16.6667H40" stroke="#81C1EA" stroke-width="4" stroke-miterlimit="10" stroke-linecap="round"/>
<path d="M26.6665 16.6667H62.1764C69.2603 16.6667 74.9998 22.2066 74.9998 29.044V50.9559C74.9998 57.7934 69.2603 63.3333 62.1764 63.3333H38.7498" stroke="#225AA7" stroke-width="4" stroke-miterlimit="10" stroke-linecap="round"/>
<path d="M61.8421 36.6667H54.8246C52.1784 36.6667 50 34.4242 50 31.6667C50 28.9242 52.1637 26.6667 54.8246 26.6667H61.8421C64.4883 26.6667 66.6667 28.9091 66.6667 31.6667C66.652 34.4091 64.4883 36.6667 61.8421 36.6667Z" fill="#225AA7"/>
<path d="M16.6665 41.6667H21.6665" stroke="#FFBE12" stroke-width="4" stroke-miterlimit="10" stroke-linecap="round"/>
<path d="M16.6665 51.6667H44.9998" stroke="#81C1EA" stroke-width="4" stroke-miterlimit="10" stroke-linecap="round"/>
</svg>
