<svg width="80" height="80" viewBox="0 0 80 80" fill="none" xmlns="http://www.w3.org/2000/svg">
<path d="M27.5521 26.25H51.9271" stroke="white" stroke-width="4" stroke-miterlimit="10" stroke-linecap="round"/>
<path d="M27.6432 38.4375H44.3099" stroke="white" stroke-width="4" stroke-miterlimit="10" stroke-linecap="round"/>
<path d="M27.6432 50.1042H39.3099" stroke="white" stroke-width="4" stroke-miterlimit="10" stroke-linecap="round"/>
<path d="M39.7396 66.875H18.3631C15.5842 66.875 13.3334 64.7089 13.3334 62.0346V14.8404C13.3334 12.1661 15.5842 10 18.3631 10H39.7396" stroke="#81C1EA" stroke-width="4" stroke-miterlimit="10" stroke-linecap="round"/>
<path d="M25.5209 10H61.1459C63.9084 10 66.1459 12.1661 66.1459 14.8404V62.0346C66.1459 64.7089 63.9084 66.875 61.1459 66.875H39.8959" stroke="white" stroke-width="4" stroke-miterlimit="10" stroke-linecap="round"/>
<path d="M57.9765 70.504C56.1099 70.504 54.4299 70.2773 52.9365 69.824C51.4432 69.344 50.0165 68.5173 48.6565 67.344C48.3099 67.0506 48.0432 66.7173 47.8565 66.344C47.6699 65.9706 47.5765 65.5973 47.5765 65.224C47.5765 64.6106 47.7899 64.0773 48.2165 63.624C48.6699 63.144 49.2299 62.904 49.8965 62.904C50.4032 62.904 50.8565 63.064 51.2565 63.384C52.2699 64.2106 53.2699 64.8373 54.2565 65.264C55.2699 65.6906 56.5099 65.904 57.9765 65.904C58.9632 65.904 59.8699 65.7573 60.6965 65.464C61.5232 65.144 62.1899 64.7306 62.6965 64.224C63.2032 63.6906 63.4565 63.0906 63.4565 62.424C63.4565 61.624 63.2165 60.944 62.7365 60.384C62.2565 59.824 61.5232 59.3573 60.5365 58.984C59.5499 58.584 58.2965 58.2773 56.7765 58.064C55.3365 57.8506 54.0699 57.5306 52.9765 57.104C51.8832 56.6506 50.9632 56.0906 50.2165 55.424C49.4965 54.7306 48.9499 53.9306 48.5765 53.024C48.2032 52.0906 48.0165 51.0506 48.0165 49.904C48.0165 48.1706 48.4565 46.6906 49.3365 45.464C50.2432 44.2373 51.4565 43.304 52.9765 42.664C54.4965 42.024 56.1765 41.704 58.0165 41.704C59.7499 41.704 61.3499 41.9706 62.8165 42.504C64.3099 43.0106 65.5232 43.664 66.4565 44.464C67.2299 45.0773 67.6165 45.784 67.6165 46.584C67.6165 47.1706 67.3899 47.704 66.9365 48.184C66.4832 48.664 65.9499 48.904 65.3365 48.904C64.9365 48.904 64.5765 48.784 64.2565 48.544C63.8299 48.1706 63.2565 47.824 62.5365 47.504C61.8165 47.1573 61.0565 46.8773 60.2565 46.664C59.4565 46.424 58.7099 46.304 58.0165 46.304C56.8699 46.304 55.8965 46.4506 55.0965 46.744C54.3232 47.0373 53.7365 47.4373 53.3365 47.944C52.9365 48.4506 52.7365 49.0373 52.7365 49.704C52.7365 50.504 52.9632 51.1706 53.4165 51.704C53.8965 52.2106 54.5765 52.624 55.4565 52.944C56.3365 53.2373 57.3899 53.504 58.6165 53.744C60.2165 54.0373 61.6165 54.384 62.8165 54.784C64.0432 55.184 65.0565 55.704 65.8565 56.344C66.6565 56.9573 67.2565 57.744 67.6565 58.704C68.0565 59.6373 68.2565 60.784 68.2565 62.144C68.2565 63.8773 67.7765 65.3706 66.8165 66.624C65.8565 67.8773 64.5899 68.8373 63.0165 69.504C61.4699 70.1706 59.7899 70.504 57.9765 70.504ZM60.8565 72.664C60.8565 73.3573 60.6165 73.9306 60.1365 74.384C59.6832 74.864 59.1099 75.104 58.4165 75.104C57.7499 75.104 57.1899 74.864 56.7365 74.384C56.2832 73.9306 56.0565 73.3573 56.0565 72.664V40.504C56.0565 39.8106 56.2832 39.2373 56.7365 38.784C57.2165 38.304 57.8032 38.064 58.4965 38.064C59.1899 38.064 59.7499 38.304 60.1765 38.784C60.6299 39.2373 60.8565 39.8106 60.8565 40.504V72.664Z" fill="#FFBE12"/>
</svg>
