<svg width="144" height="144" viewBox="0 0 144 144" fill="none" xmlns="http://www.w3.org/2000/svg">
<circle cx="72" cy="72" r="72" fill="#F4F6F9"/>
<path d="M97.7528 94.831C98.8373 91.0483 99.0227 87.0747 98.4601 83.1917L92.8174 44.4697C92.0948 39.513 87.2097 37.7374 83.2973 40.0479" stroke="#225AA7" stroke-width="4" stroke-miterlimit="10" stroke-linecap="round" stroke-linejoin="round"/>
<path d="M91.6169 122.961L91.6846 107.921L95.8997 99.2747C96.6071 97.8248 97.1835 96.3215 97.6256 94.7872" stroke="#225AA7" stroke-width="4" stroke-miterlimit="10" stroke-linecap="round" stroke-linejoin="round"/>
<path d="M88.2919 61.7487L80.4045 32.7578C78.1484 25.9665 71.6045 23.7292 66.868 28.2073" stroke="#81C1EA" stroke-width="4" stroke-miterlimit="10" stroke-linecap="round" stroke-linejoin="round"/>
<path d="M77.9499 62.5261L65.711 24.3331C64.2541 19.7827 58.5494 18.3514 55.0817 21.6669C53.3129 23.3596 52.6336 25.8959 53.3189 28.2346L61.6487 56.6069" stroke="#81C1EA" stroke-width="4" stroke-miterlimit="10" stroke-linecap="round" stroke-linejoin="round"/>
<path d="M43.6538 95.7285C46.0246 99.051 48.7347 102.128 51.7371 104.905L55.252 108.151L55.1735 122.885L91.6355 122.907" stroke="#225AA7" stroke-width="4" stroke-miterlimit="10" stroke-linecap="round" stroke-linejoin="round"/>
<path d="M69.5392 59.5049L59.8913 55.6949C56.0164 54.1632 51.63 54.6337 48.1361 56.9504L37.7973 63.8149C34.4272 66.0522 35.0464 71.2702 38.8853 72.4714C41.226 73.2022 44.1747 73.2054 47.6967 71.4574C48.7587 70.9299 49.8674 70.5072 51.0257 70.2561C54.0828 69.5919 59.3471 69.2453 62.0474 73.707C63.8872 76.745 63.1456 80.6951 60.4481 83.0278C58.9325 84.3371 56.9131 85.3572 54.4503 84.9601C52.6159 84.6646 51.0107 83.5746 49.9137 82.0715C48.4939 80.1203 45.5697 76.6184 41.985 75.1884C37.9179 73.5678 34.0036 77.9692 35.939 81.9129L38.6423 87.4201C40.1001 90.3851 41.7958 93.2165 43.7106 95.8859" stroke="#81C1EA" stroke-width="4" stroke-miterlimit="10" stroke-linecap="round" stroke-linejoin="round"/>
<path d="M12.1104 48.1436L12.1541 64.1276" stroke="#FFBE12" stroke-width="4" stroke-miterlimit="10" stroke-linecap="round" stroke-linejoin="round"/>
<path d="M6.97119 56.1562L17.2928 56.1133" stroke="#FFBE12" stroke-width="4" stroke-miterlimit="10" stroke-linecap="round" stroke-linejoin="round"/>
<path d="M106.827 10.5713L106.811 35.5545" stroke="#FFBE12" stroke-width="4" stroke-miterlimit="10" stroke-linecap="round" stroke-linejoin="round"/>
<path d="M98.7505 23.0688L114.882 23.0572" stroke="#FFBE12" stroke-width="4" stroke-miterlimit="10" stroke-linecap="round" stroke-linejoin="round"/>
</svg>
