<svg width="339" height="339" viewBox="0 0 339 339" fill="none" xmlns="http://www.w3.org/2000/svg">
<path opacity="0.2" d="M143 309C221.977 309 286 244.977 286 166C286 87.0233 221.977 23 143 23C64.0233 23 0 87.0233 0 166C0 244.977 64.0233 309 143 309Z" fill="#002A61"/>
<path d="M214.562 241.274H171.833V277.97H214.562V241.274Z" fill="#002A61"/>
<path d="M300.965 239.47H88.4069C76.3474 239.47 66.4805 228.902 66.4805 215.987V94.4828C66.4805 81.5673 76.3474 71 88.4069 71H300.965C313.025 71 322.892 81.5673 322.892 94.4828V215.987C322.892 228.902 313.025 239.47 300.965 239.47Z" fill="url(#paint0_linear)"/>
<path opacity="0.9" d="M118.604 152.914C118.716 152.914 118.832 152.946 118.952 153.01C119.08 153.066 119.176 153.142 119.24 153.238L122.156 157.726L121.556 157.702L124.544 153.238C124.696 153.022 124.892 152.914 125.132 152.914C125.324 152.914 125.496 152.982 125.648 153.118C125.8 153.254 125.876 153.43 125.876 153.646V160.594C125.876 160.802 125.808 160.978 125.672 161.122C125.536 161.258 125.356 161.326 125.132 161.326C124.908 161.326 124.724 161.258 124.58 161.122C124.444 160.978 124.376 160.802 124.376 160.594V154.942L124.844 155.05L122.396 158.782C122.324 158.87 122.232 158.946 122.12 159.01C122.016 159.074 121.908 159.102 121.796 159.094C121.692 159.102 121.584 159.074 121.472 159.01C121.368 158.946 121.28 158.87 121.208 158.782L118.916 155.158L119.228 154.522V160.594C119.228 160.802 119.164 160.978 119.036 161.122C118.908 161.258 118.74 161.326 118.532 161.326C118.332 161.326 118.168 161.258 118.04 161.122C117.912 160.978 117.848 160.802 117.848 160.594V153.646C117.848 153.446 117.92 153.274 118.064 153.13C118.216 152.986 118.396 152.914 118.604 152.914ZM129.412 152.926H133.432C133.64 152.926 133.812 152.994 133.948 153.13C134.092 153.258 134.164 153.426 134.164 153.634C134.164 153.834 134.092 153.998 133.948 154.126C133.812 154.246 133.64 154.306 133.432 154.306H130.072L130.18 154.102V156.442L130.084 156.346H132.892C133.1 156.346 133.272 156.414 133.408 156.55C133.552 156.678 133.624 156.846 133.624 157.054C133.624 157.254 133.552 157.418 133.408 157.546C133.272 157.666 133.1 157.726 132.892 157.726H130.12L130.18 157.63V160.054L130.084 159.946H133.432C133.64 159.946 133.812 160.018 133.948 160.162C134.092 160.298 134.164 160.458 134.164 160.642C134.164 160.842 134.092 161.006 133.948 161.134C133.812 161.262 133.64 161.326 133.432 161.326H129.412C129.204 161.326 129.028 161.258 128.884 161.122C128.748 160.978 128.68 160.802 128.68 160.594V153.658C128.68 153.45 128.748 153.278 128.884 153.142C129.028 152.998 129.204 152.926 129.412 152.926ZM141.179 159.922C141.387 159.922 141.559 159.99 141.695 160.126C141.839 160.254 141.911 160.422 141.911 160.63C141.911 160.83 141.839 160.998 141.695 161.134C141.559 161.262 141.387 161.326 141.179 161.326H137.279C137.071 161.326 136.895 161.258 136.751 161.122C136.615 160.978 136.547 160.802 136.547 160.594V153.658C136.547 153.45 136.619 153.278 136.763 153.142C136.907 152.998 137.091 152.926 137.315 152.926C137.507 152.926 137.675 152.998 137.819 153.142C137.971 153.278 138.047 153.45 138.047 153.658V160.126L137.783 159.922H141.179ZM145.041 152.914C145.153 152.914 145.269 152.946 145.389 153.01C145.517 153.066 145.613 153.142 145.677 153.238L148.593 157.726L147.993 157.702L150.981 153.238C151.133 153.022 151.329 152.914 151.569 152.914C151.761 152.914 151.933 152.982 152.085 153.118C152.237 153.254 152.313 153.43 152.313 153.646V160.594C152.313 160.802 152.245 160.978 152.109 161.122C151.973 161.258 151.793 161.326 151.569 161.326C151.345 161.326 151.161 161.258 151.017 161.122C150.881 160.978 150.813 160.802 150.813 160.594V154.942L151.281 155.05L148.833 158.782C148.761 158.87 148.669 158.946 148.557 159.01C148.453 159.074 148.345 159.102 148.233 159.094C148.129 159.102 148.021 159.074 147.909 159.01C147.805 158.946 147.717 158.87 147.645 158.782L145.353 155.158L145.665 154.522V160.594C145.665 160.802 145.601 160.978 145.473 161.122C145.345 161.258 145.177 161.326 144.969 161.326C144.769 161.326 144.605 161.258 144.477 161.122C144.349 160.978 144.285 160.802 144.285 160.594V153.646C144.285 153.446 144.357 153.274 144.501 153.13C144.653 152.986 144.833 152.914 145.041 152.914ZM159.089 157.066L159.065 156.79C159.369 156.926 159.633 157.102 159.857 157.318C160.081 157.534 160.253 157.77 160.373 158.026C160.493 158.282 160.553 158.546 160.553 158.818C160.553 159.274 160.425 159.694 160.169 160.078C159.921 160.454 159.585 160.758 159.161 160.99C158.737 161.214 158.265 161.326 157.745 161.326C157.225 161.326 156.753 161.214 156.329 160.99C155.905 160.758 155.565 160.454 155.309 160.078C155.061 159.694 154.937 159.274 154.937 158.818C154.937 158.45 155.013 158.134 155.165 157.87C155.325 157.598 155.521 157.37 155.753 157.186C155.993 157.002 156.229 156.85 156.461 156.73L156.365 157.066C156.165 156.986 155.969 156.874 155.777 156.73C155.593 156.578 155.441 156.386 155.321 156.154C155.201 155.922 155.141 155.65 155.141 155.338C155.141 154.89 155.257 154.486 155.489 154.126C155.721 153.758 156.033 153.466 156.425 153.25C156.825 153.034 157.265 152.926 157.745 152.926C158.233 152.926 158.669 153.034 159.053 153.25C159.445 153.466 159.757 153.758 159.989 154.126C160.221 154.486 160.337 154.89 160.337 155.338C160.337 155.682 160.269 155.97 160.133 156.202C159.997 156.434 159.833 156.618 159.641 156.754C159.449 156.89 159.265 156.994 159.089 157.066ZM156.581 155.362C156.581 155.578 156.629 155.77 156.725 155.938C156.829 156.106 156.969 156.242 157.145 156.346C157.321 156.442 157.521 156.49 157.745 156.49C157.969 156.49 158.165 156.442 158.333 156.346C158.509 156.242 158.645 156.106 158.741 155.938C158.845 155.77 158.897 155.578 158.897 155.362C158.897 155.042 158.785 154.778 158.561 154.57C158.345 154.354 158.073 154.246 157.745 154.246C157.409 154.246 157.129 154.354 156.905 154.57C156.689 154.778 156.581 155.042 156.581 155.362ZM157.745 160.006C158.129 160.006 158.453 159.89 158.717 159.658C158.981 159.418 159.113 159.13 159.113 158.794C159.113 158.562 159.053 158.354 158.933 158.17C158.813 157.986 158.649 157.842 158.441 157.738C158.233 157.626 158.001 157.57 157.745 157.57C157.489 157.57 157.257 157.626 157.049 157.738C156.841 157.842 156.677 157.986 156.557 158.17C156.437 158.354 156.377 158.562 156.377 158.794C156.377 159.13 156.509 159.418 156.773 159.658C157.037 159.89 157.361 160.006 157.745 160.006ZM163.496 159.634C163.568 159.634 163.644 159.646 163.724 159.67C163.812 159.694 163.908 159.742 164.012 159.814C164.148 159.918 164.308 160.01 164.492 160.09C164.684 160.17 164.904 160.21 165.152 160.21C165.4 160.21 165.632 160.15 165.848 160.03C166.072 159.902 166.256 159.726 166.4 159.502C166.544 159.27 166.616 158.994 166.616 158.674C166.616 158.37 166.552 158.118 166.424 157.918C166.304 157.718 166.14 157.566 165.932 157.462C165.732 157.358 165.516 157.306 165.284 157.306C165.108 157.306 164.96 157.322 164.84 157.354C164.728 157.386 164.616 157.422 164.504 157.462C164.4 157.494 164.276 157.51 164.132 157.51C163.948 157.51 163.804 157.446 163.7 157.318C163.604 157.19 163.556 157.038 163.556 156.862C163.556 156.75 163.576 156.65 163.616 156.562C163.664 156.474 163.732 156.378 163.82 156.274L165.932 153.97L166.256 154.246H163.304C163.112 154.246 162.952 154.182 162.824 154.054C162.696 153.926 162.632 153.766 162.632 153.574C162.632 153.39 162.696 153.238 162.824 153.118C162.952 152.99 163.112 152.926 163.304 152.926H166.976C167.224 152.926 167.408 152.994 167.528 153.13C167.656 153.266 167.72 153.438 167.72 153.646C167.72 153.75 167.692 153.85 167.636 153.946C167.588 154.042 167.52 154.134 167.432 154.222L165.308 156.562L164.984 156.154C165.072 156.114 165.192 156.078 165.344 156.046C165.504 156.014 165.636 155.998 165.74 155.998C166.212 155.998 166.62 156.122 166.964 156.37C167.316 156.61 167.584 156.926 167.768 157.318C167.96 157.702 168.056 158.118 168.056 158.566C168.056 159.158 167.924 159.67 167.66 160.102C167.396 160.534 167.024 160.866 166.544 161.098C166.064 161.33 165.504 161.446 164.864 161.446C164.568 161.446 164.276 161.41 163.988 161.338C163.7 161.266 163.452 161.17 163.244 161.05C163.068 160.954 162.948 160.85 162.884 160.738C162.828 160.618 162.8 160.506 162.8 160.402C162.8 160.218 162.864 160.046 162.992 159.886C163.128 159.718 163.296 159.634 163.496 159.634ZM173.226 161.446C172.538 161.446 171.954 161.266 171.474 160.906C171.002 160.538 170.642 160.03 170.394 159.382C170.146 158.726 170.022 157.974 170.022 157.126C170.022 156.27 170.146 155.518 170.394 154.87C170.642 154.222 171.002 153.718 171.474 153.358C171.954 152.99 172.538 152.806 173.226 152.806C173.914 152.806 174.494 152.99 174.966 153.358C175.446 153.718 175.81 154.222 176.058 154.87C176.306 155.518 176.43 156.27 176.43 157.126C176.43 157.974 176.306 158.726 176.058 159.382C175.81 160.03 175.446 160.538 174.966 160.906C174.494 161.266 173.914 161.446 173.226 161.446ZM173.226 160.006C173.562 160.006 173.85 159.902 174.09 159.694C174.338 159.478 174.53 159.158 174.666 158.734C174.802 158.302 174.87 157.766 174.87 157.126C174.87 156.478 174.802 155.942 174.666 155.518C174.53 155.094 174.338 154.778 174.09 154.57C173.85 154.354 173.562 154.246 173.226 154.246C172.898 154.246 172.61 154.354 172.362 154.57C172.114 154.778 171.922 155.094 171.786 155.518C171.65 155.942 171.582 156.478 171.582 157.126C171.582 157.766 171.65 158.302 171.786 158.734C171.922 159.158 172.114 159.478 172.362 159.694C172.61 159.902 172.898 160.006 173.226 160.006ZM180.733 161.446C180.437 161.446 180.121 161.402 179.785 161.314C179.449 161.218 179.173 161.082 178.957 160.906C178.853 160.818 178.769 160.706 178.705 160.57C178.649 160.426 178.621 160.29 178.621 160.162C178.621 160.026 178.677 159.898 178.789 159.778C178.909 159.658 179.077 159.598 179.293 159.598C179.437 159.598 179.617 159.674 179.833 159.826C179.961 159.906 180.101 159.978 180.253 160.042C180.405 160.106 180.561 160.138 180.721 160.138C181.057 160.138 181.365 160.062 181.645 159.91C181.933 159.758 182.161 159.554 182.329 159.298C182.505 159.042 182.593 158.766 182.593 158.47C182.593 158.166 182.521 157.906 182.377 157.69C182.241 157.474 182.057 157.306 181.825 157.186C181.601 157.066 181.357 157.006 181.093 157.006C180.845 157.006 180.629 157.046 180.445 157.126C180.261 157.206 180.093 157.29 179.941 157.378C179.789 157.458 179.637 157.498 179.485 157.498C179.221 157.498 179.025 157.442 178.897 157.33C178.769 157.21 178.689 157.07 178.657 156.91C178.625 156.75 178.617 156.606 178.633 156.478L179.005 153.502C179.037 153.334 179.117 153.198 179.245 153.094C179.381 152.982 179.541 152.926 179.725 152.926H183.193C183.385 152.926 183.545 152.99 183.673 153.118C183.801 153.246 183.865 153.406 183.865 153.598C183.865 153.782 183.801 153.938 183.673 154.066C183.545 154.186 183.385 154.246 183.193 154.246H180.097L180.229 154.138L179.905 156.634L179.749 156.178C179.797 156.098 179.901 156.022 180.061 155.95C180.221 155.878 180.405 155.818 180.613 155.77C180.821 155.714 181.025 155.686 181.225 155.686C181.761 155.686 182.241 155.81 182.665 156.058C183.089 156.298 183.421 156.63 183.661 157.054C183.909 157.47 184.033 157.942 184.033 158.47C184.033 158.886 183.945 159.274 183.769 159.634C183.593 159.994 183.349 160.31 183.037 160.582C182.733 160.854 182.381 161.066 181.981 161.218C181.589 161.37 181.173 161.446 180.733 161.446ZM191.262 160.006C191.454 160.006 191.614 160.07 191.742 160.198C191.87 160.326 191.934 160.486 191.934 160.678C191.934 160.862 191.87 161.018 191.742 161.146C191.614 161.266 191.454 161.326 191.262 161.326H187.182C186.974 161.326 186.81 161.262 186.69 161.134C186.57 161.006 186.51 160.842 186.51 160.642C186.51 160.442 186.582 160.266 186.726 160.114L189.342 157.318C189.63 157.006 189.862 156.69 190.038 156.37C190.214 156.042 190.302 155.738 190.302 155.458C190.302 155.21 190.242 154.986 190.122 154.786C190.002 154.586 189.846 154.426 189.654 154.306C189.462 154.186 189.254 154.126 189.03 154.126C188.798 154.126 188.562 154.206 188.322 154.366C188.082 154.518 187.87 154.722 187.686 154.978C187.59 155.106 187.494 155.186 187.398 155.218C187.302 155.25 187.214 155.266 187.134 155.266C186.958 155.266 186.794 155.202 186.642 155.074C186.498 154.938 186.426 154.782 186.426 154.606C186.426 154.47 186.47 154.338 186.558 154.21C186.654 154.082 186.77 153.95 186.906 153.814C187.21 153.51 187.562 153.266 187.962 153.082C188.362 152.898 188.746 152.806 189.114 152.806C189.658 152.806 190.126 152.918 190.518 153.142C190.91 153.366 191.214 153.674 191.43 154.066C191.646 154.458 191.754 154.902 191.754 155.398C191.754 155.734 191.69 156.078 191.562 156.43C191.442 156.774 191.274 157.11 191.058 157.438C190.842 157.766 190.594 158.082 190.314 158.386L188.694 160.114L188.562 160.006H191.262ZM198.167 157.066L198.143 156.79C198.447 156.926 198.711 157.102 198.935 157.318C199.159 157.534 199.331 157.77 199.451 158.026C199.571 158.282 199.631 158.546 199.631 158.818C199.631 159.274 199.503 159.694 199.247 160.078C198.999 160.454 198.663 160.758 198.239 160.99C197.815 161.214 197.343 161.326 196.823 161.326C196.303 161.326 195.831 161.214 195.407 160.99C194.983 160.758 194.643 160.454 194.387 160.078C194.139 159.694 194.015 159.274 194.015 158.818C194.015 158.45 194.091 158.134 194.243 157.87C194.403 157.598 194.599 157.37 194.831 157.186C195.071 157.002 195.307 156.85 195.539 156.73L195.443 157.066C195.243 156.986 195.047 156.874 194.855 156.73C194.671 156.578 194.519 156.386 194.399 156.154C194.279 155.922 194.219 155.65 194.219 155.338C194.219 154.89 194.335 154.486 194.567 154.126C194.799 153.758 195.111 153.466 195.503 153.25C195.903 153.034 196.343 152.926 196.823 152.926C197.311 152.926 197.747 153.034 198.131 153.25C198.523 153.466 198.835 153.758 199.067 154.126C199.299 154.486 199.415 154.89 199.415 155.338C199.415 155.682 199.347 155.97 199.211 156.202C199.075 156.434 198.911 156.618 198.719 156.754C198.527 156.89 198.343 156.994 198.167 157.066ZM195.659 155.362C195.659 155.578 195.707 155.77 195.803 155.938C195.907 156.106 196.047 156.242 196.223 156.346C196.399 156.442 196.599 156.49 196.823 156.49C197.047 156.49 197.243 156.442 197.411 156.346C197.587 156.242 197.723 156.106 197.819 155.938C197.923 155.77 197.975 155.578 197.975 155.362C197.975 155.042 197.863 154.778 197.639 154.57C197.423 154.354 197.151 154.246 196.823 154.246C196.487 154.246 196.207 154.354 195.983 154.57C195.767 154.778 195.659 155.042 195.659 155.362ZM196.823 160.006C197.207 160.006 197.531 159.89 197.795 159.658C198.059 159.418 198.191 159.13 198.191 158.794C198.191 158.562 198.131 158.354 198.011 158.17C197.891 157.986 197.727 157.842 197.519 157.738C197.311 157.626 197.079 157.57 196.823 157.57C196.567 157.57 196.335 157.626 196.127 157.738C195.919 157.842 195.755 157.986 195.635 158.17C195.515 158.354 195.455 158.562 195.455 158.794C195.455 159.13 195.587 159.418 195.851 159.658C196.115 159.89 196.439 160.006 196.823 160.006ZM204.026 161.326C203.802 161.326 203.618 161.258 203.474 161.122C203.33 160.978 203.258 160.802 203.258 160.594V154.546L203.426 154.81L202.514 155.362C202.394 155.434 202.266 155.47 202.13 155.47C201.922 155.47 201.75 155.394 201.614 155.242C201.478 155.082 201.41 154.914 201.41 154.738C201.41 154.466 201.534 154.258 201.782 154.114L203.594 153.034C203.73 152.962 203.902 152.926 204.11 152.926C204.318 152.926 204.486 152.998 204.614 153.142C204.75 153.278 204.818 153.45 204.818 153.658V160.594C204.818 160.802 204.742 160.978 204.59 161.122C204.446 161.258 204.258 161.326 204.026 161.326ZM208.389 152.926C208.581 152.926 208.749 152.998 208.893 153.142C209.045 153.278 209.121 153.45 209.121 153.658V160.594C209.121 160.802 209.045 160.978 208.893 161.122C208.741 161.258 208.565 161.326 208.365 161.326C208.141 161.326 207.961 161.258 207.825 161.122C207.689 160.978 207.621 160.802 207.621 160.594V153.658C207.621 153.45 207.693 153.278 207.837 153.142C207.981 152.998 208.165 152.926 208.389 152.926ZM213.705 152.926C213.929 152.926 214.109 152.998 214.245 153.142C214.381 153.278 214.449 153.45 214.449 153.658V160.594C214.449 160.802 214.377 160.978 214.233 161.122C214.097 161.258 213.913 161.326 213.681 161.326C213.489 161.326 213.317 161.258 213.165 161.122C213.021 160.978 212.949 160.802 212.949 160.594V153.658C212.949 153.45 213.025 153.278 213.177 153.142C213.329 152.998 213.505 152.926 213.705 152.926ZM208.353 156.418H213.705V157.798H208.353V156.418ZM220.03 161.446C219.342 161.446 218.758 161.266 218.278 160.906C217.806 160.538 217.446 160.03 217.198 159.382C216.95 158.726 216.826 157.974 216.826 157.126C216.826 156.27 216.95 155.518 217.198 154.87C217.446 154.222 217.806 153.718 218.278 153.358C218.758 152.99 219.342 152.806 220.03 152.806C220.718 152.806 221.298 152.99 221.77 153.358C222.25 153.718 222.614 154.222 222.862 154.87C223.11 155.518 223.234 156.27 223.234 157.126C223.234 157.974 223.11 158.726 222.862 159.382C222.614 160.03 222.25 160.538 221.77 160.906C221.298 161.266 220.718 161.446 220.03 161.446ZM220.03 160.006C220.366 160.006 220.654 159.902 220.894 159.694C221.142 159.478 221.334 159.158 221.47 158.734C221.606 158.302 221.674 157.766 221.674 157.126C221.674 156.478 221.606 155.942 221.47 155.518C221.334 155.094 221.142 154.778 220.894 154.57C220.654 154.354 220.366 154.246 220.03 154.246C219.702 154.246 219.414 154.354 219.166 154.57C218.918 154.778 218.726 155.094 218.59 155.518C218.454 155.942 218.386 156.478 218.386 157.126C218.386 157.766 218.454 158.302 218.59 158.734C218.726 159.158 218.918 159.478 219.166 159.694C219.414 159.902 219.702 160.006 220.03 160.006Z" fill="#225AA7"/>
<path d="M301.937 72.8038C312.648 72.8038 321.411 81.8111 321.411 92.82V221.257C321.411 232.266 312.648 241.274 301.937 241.274H139.765" stroke="#338CBF" stroke-width="6" stroke-miterlimit="10" stroke-linecap="round" stroke-linejoin="round"/>
<path d="M139.765 241.274H84.4743C73.7634 241.274 65 232.266 65 221.257V92.82C65 81.8111 73.7634 72.8038 84.4743 72.8038H301.937" stroke="#81C1EA" stroke-width="6" stroke-miterlimit="10" stroke-linecap="round" stroke-linejoin="round"/>
<path d="M193.06 188.734H120.031C118.246 188.734 116.786 187.233 116.786 185.398V178.726C116.786 176.891 118.246 175.39 120.031 175.39H193.06C194.845 175.39 196.306 176.891 196.306 178.726V185.398C196.306 187.233 194.845 188.734 193.06 188.734Z" fill="#225AA7"/>
<path d="M157.584 206.246H119.788C118.133 206.246 116.786 204.861 116.786 203.16V199.34C116.786 197.639 118.133 196.254 119.788 196.254H157.584C159.24 196.254 160.587 197.639 160.587 199.34V203.16C160.603 204.861 159.256 206.246 157.584 206.246Z" fill="#FFBE12"/>
<path d="M250.983 288.541H135.846C133.302 288.541 131.241 286.24 131.241 283.399C131.241 280.558 133.302 278.258 135.846 278.258H250.983C253.528 278.258 255.589 280.558 255.589 283.399C255.589 286.24 253.528 288.541 250.983 288.541Z" fill="#338CBF"/>
<rect x="152.488" y="128.752" width="16.2286" height="4.87926" rx="2.43963" fill="#FFBE12"/>
<rect x="175.208" y="128.752" width="16.2286" height="4.87926" rx="2.43963" fill="#225AA7"/>
<rect x="197.928" y="128.752" width="16.2286" height="4.87926" rx="2.43963" fill="#225AA7"/>
<rect x="220.648" y="128.752" width="16.2286" height="4.87926" rx="2.43963" fill="#225AA7"/>
<rect x="87.5737" y="86.4651" width="212.594" height="27.6492" rx="5" fill="white"/>
<defs>
<linearGradient id="paint0_linear" x1="287.189" y1="-23.243" x2="-32.4782" y2="455.079" gradientUnits="userSpaceOnUse">
<stop stop-color="white"/>
<stop offset="1" stop-color="#B5C8E9"/>
</linearGradient>
</defs>
</svg>
