<svg width="80" height="80" viewBox="0 0 80 80" fill="none" xmlns="http://www.w3.org/2000/svg">
<path d="M37.5585 18.8148C38.7974 20.7992 39.5231 23.1909 39.5231 25.7625C39.5231 32.6289 34.3727 38.1922 28.0187 38.1922C23.5187 38.1922 19.6205 35.3977 17.7311 31.3302" stroke="white" stroke-width="4" stroke-miterlimit="10" stroke-linecap="round" stroke-linejoin="round"/>
<path d="M17.7313 31.3307C16.9525 29.6548 16.5145 27.7646 16.5145 25.763C16.5145 18.8967 21.6649 13.3334 28.0189 13.3334C31.9923 13.3334 35.4923 15.5065 37.5587 18.8153" stroke="#81C1EA" stroke-width="4" stroke-miterlimit="10" stroke-linecap="round" stroke-linejoin="round"/>
<path d="M19.0364 66.3356H38.7709C53.6868 67.36 52.7974 60.052 52.7974 60.052C52.5983 54.4586 47.7399 50.9482 42.4567 48.7794" stroke="white" stroke-width="4" stroke-miterlimit="10" stroke-linecap="round" stroke-linejoin="round"/>
<path d="M42.4569 48.7796C33.8198 45.2349 23.9924 45.2349 15.3508 48.7796C10.0676 50.9484 5.20921 54.4587 5.0101 60.0521C5.0101 60.0521 4.12072 67.3643 19.0366 66.3356" stroke="#81C1EA" stroke-width="4" stroke-miterlimit="10" stroke-linecap="round" stroke-linejoin="round"/>
<path d="M49 23H72" stroke="white" stroke-width="4" stroke-miterlimit="10" stroke-linecap="round" stroke-linejoin="round"/>
<path d="M49 33H65" stroke="white" stroke-width="4" stroke-miterlimit="10" stroke-linecap="round" stroke-linejoin="round"/>
<path d="M49 43H70" stroke="#FFBE12" stroke-width="4" stroke-miterlimit="10" stroke-linecap="round" stroke-linejoin="round"/>
</svg>
