<svg width="80" height="80" viewBox="0 0 80 80" fill="none" xmlns="http://www.w3.org/2000/svg">
<path d="M24.7056 36.3456H47.5426" stroke="#338CBF" stroke-width="4" stroke-miterlimit="10" stroke-linecap="round" stroke-linejoin="round"/>
<path d="M24.7056 50.0439H47.5426" stroke="#338CBF" stroke-width="4" stroke-miterlimit="10" stroke-linecap="round" stroke-linejoin="round"/>
<path d="M62.0472 41.154V69.0984C62.0472 71.4363 59.8432 73.3358 57.1187 73.3358H14.9286C12.204 73.3312 10 71.4363 10 69.0939V59.3087" stroke="#225AA7" stroke-width="4" stroke-miterlimit="10" stroke-linecap="round" stroke-linejoin="round"/>
<path d="M10 59.3087V23.2326C10 20.8903 12.204 18.9954 14.9286 18.9954H57.124C59.8432 18.9954 62.0525 20.8903 62.0525 23.2326V41.1542" stroke="#338CBF" stroke-width="4" stroke-miterlimit="10" stroke-linecap="round" stroke-linejoin="round"/>
<path d="M21.6836 13.0587H49.8316" stroke="#81C1EA" stroke-width="4" stroke-miterlimit="10" stroke-linecap="round" stroke-linejoin="round"/>
<path d="M30.1816 11.6898C30.1816 8.91339 32.7946 6.66666 36.0237 6.66666C39.2528 6.66666 41.8658 8.91339 41.8658 11.6898" stroke="#81C1EA" stroke-width="4" stroke-miterlimit="10" stroke-linecap="round" stroke-linejoin="round"/>
<path d="M36.4917 64.8161L47.2541 73.5661L68.7789 53.2536" stroke="#FFBE12" stroke-width="4" stroke-miterlimit="10" stroke-linecap="round" stroke-linejoin="round"/>
</svg>
