<svg width="80" height="80" viewBox="0 0 80 80" fill="none" xmlns="http://www.w3.org/2000/svg">
<rect x="4.70605" y="10.196" width="70.5883" height="44.7059" rx="5" fill="#225AA7"/>
<g opacity="0.9">
<path d="M11.0243 32.3823C11.0803 32.3823 11.1383 32.3983 11.1983 32.4303C11.2623 32.4583 11.3103 32.4963 11.3423 32.5443L12.8003 34.7883L12.5003 34.7763L13.9943 32.5443C14.0703 32.4363 14.1683 32.3823 14.2883 32.3823C14.3843 32.3823 14.4703 32.4163 14.5463 32.4843C14.6223 32.5523 14.6603 32.6403 14.6603 32.7483V36.2223C14.6603 36.3263 14.6263 36.4143 14.5583 36.4863C14.4903 36.5543 14.4003 36.5883 14.2883 36.5883C14.1763 36.5883 14.0843 36.5543 14.0123 36.4863C13.9443 36.4143 13.9103 36.3263 13.9103 36.2223V33.3963L14.1443 33.4503L12.9203 35.3163C12.8843 35.3603 12.8383 35.3983 12.7823 35.4303C12.7303 35.4623 12.6763 35.4763 12.6203 35.4723C12.5683 35.4763 12.5143 35.4623 12.4583 35.4303C12.4063 35.3983 12.3623 35.3603 12.3263 35.3163L11.1803 33.5043L11.3363 33.1863V36.2223C11.3363 36.3263 11.3043 36.4143 11.2403 36.4863C11.1763 36.5543 11.0923 36.5883 10.9883 36.5883C10.8883 36.5883 10.8063 36.5543 10.7423 36.4863C10.6783 36.4143 10.6463 36.3263 10.6463 36.2223V32.7483C10.6463 32.6483 10.6823 32.5623 10.7543 32.4903C10.8303 32.4183 10.9203 32.3823 11.0243 32.3823Z" fill="#F4F6F9"/>
<path d="M16.9283 32.3883H18.9383C19.0423 32.3883 19.1283 32.4223 19.1963 32.4903C19.2683 32.5543 19.3043 32.6383 19.3043 32.7423C19.3043 32.8423 19.2683 32.9243 19.1963 32.9883C19.1283 33.0483 19.0423 33.0783 18.9383 33.0783H17.2583L17.3123 32.9763V34.1463L17.2643 34.0983H18.6683C18.7723 34.0983 18.8583 34.1323 18.9263 34.2003C18.9983 34.2643 19.0343 34.3483 19.0343 34.4523C19.0343 34.5523 18.9983 34.6343 18.9263 34.6983C18.8583 34.7583 18.7723 34.7883 18.6683 34.7883H17.2823L17.3123 34.7403V35.9523L17.2643 35.8983H18.9383C19.0423 35.8983 19.1283 35.9343 19.1963 36.0063C19.2683 36.0743 19.3043 36.1543 19.3043 36.2463C19.3043 36.3463 19.2683 36.4283 19.1963 36.4923C19.1283 36.5563 19.0423 36.5883 18.9383 36.5883H16.9283C16.8243 36.5883 16.7363 36.5543 16.6643 36.4863C16.5963 36.4143 16.5623 36.3263 16.5623 36.2223V32.7543C16.5623 32.6503 16.5963 32.5643 16.6643 32.4963C16.7363 32.4243 16.8243 32.3883 16.9283 32.3883Z" fill="#F4F6F9"/>
<path d="M23.3119 35.8863C23.4159 35.8863 23.5019 35.9203 23.5699 35.9883C23.6419 36.0523 23.6779 36.1363 23.6779 36.2403C23.6779 36.3403 23.6419 36.4243 23.5699 36.4923C23.5019 36.5563 23.4159 36.5883 23.3119 36.5883H21.3619C21.2579 36.5883 21.1699 36.5543 21.0979 36.4863C21.0299 36.4143 20.9959 36.3263 20.9959 36.2223V32.7543C20.9959 32.6503 21.0319 32.5643 21.1039 32.4963C21.1759 32.4243 21.2679 32.3883 21.3799 32.3883C21.4759 32.3883 21.5599 32.4243 21.6319 32.4963C21.7079 32.5643 21.7459 32.6503 21.7459 32.7543V35.9883L21.6139 35.8863H23.3119Z" fill="#F4F6F9"/>
<path d="M25.7431 32.3823C25.7991 32.3823 25.8571 32.3983 25.9171 32.4303C25.9811 32.4583 26.0291 32.4963 26.0611 32.5443L27.5191 34.7883L27.2191 34.7763L28.7131 32.5443C28.7891 32.4363 28.8871 32.3823 29.0071 32.3823C29.1031 32.3823 29.1891 32.4163 29.2651 32.4843C29.3411 32.5523 29.3791 32.6403 29.3791 32.7483V36.2223C29.3791 36.3263 29.345 36.4143 29.2771 36.4863C29.209 36.5543 29.1191 36.5883 29.0071 36.5883C28.8951 36.5883 28.8031 36.5543 28.7311 36.4863C28.6631 36.4143 28.6291 36.3263 28.6291 36.2223V33.3963L28.8631 33.4503L27.6391 35.3163C27.6031 35.3603 27.5571 35.3983 27.5011 35.4303C27.4491 35.4623 27.3951 35.4763 27.3391 35.4723C27.2871 35.4763 27.233 35.4623 27.177 35.4303C27.125 35.3983 27.0811 35.3603 27.0451 35.3163L25.8991 33.5043L26.0551 33.1863V36.2223C26.0551 36.3263 26.0231 36.4143 25.9591 36.4863C25.8951 36.5543 25.8111 36.5883 25.7071 36.5883C25.6071 36.5883 25.5251 36.5543 25.4611 36.4863C25.3971 36.4143 25.3651 36.3263 25.3651 36.2223V32.7483C25.3651 32.6483 25.4011 32.5623 25.4731 32.4903C25.5491 32.4183 25.6391 32.3823 25.7431 32.3823Z" fill="#F4F6F9"/>
<path d="M33.2671 34.4583L33.2551 34.3203C33.4071 34.3883 33.5391 34.4763 33.6511 34.5843C33.7631 34.6923 33.8491 34.8103 33.9091 34.9383C33.9691 35.0663 33.9991 35.1983 33.9991 35.3343C33.9991 35.5623 33.9351 35.7723 33.8071 35.9643C33.6831 36.1523 33.5151 36.3043 33.3031 36.4203C33.0911 36.5323 32.8551 36.5883 32.5951 36.5883C32.3351 36.5883 32.0991 36.5323 31.8871 36.4203C31.6751 36.3043 31.5051 36.1523 31.3771 35.9643C31.2531 35.7723 31.1911 35.5623 31.1911 35.3343C31.1911 35.1503 31.2291 34.9923 31.3051 34.8603C31.3851 34.7243 31.4831 34.6103 31.5991 34.5183C31.7191 34.4263 31.8371 34.3503 31.9531 34.2903L31.9051 34.4583C31.8051 34.4183 31.7071 34.3623 31.6111 34.2903C31.5191 34.2143 31.4431 34.1183 31.3831 34.0023C31.3231 33.8863 31.2931 33.7503 31.2931 33.5943C31.2931 33.3703 31.3511 33.1683 31.4671 32.9883C31.5831 32.8043 31.7391 32.6583 31.9351 32.5503C32.1351 32.4423 32.3551 32.3883 32.5951 32.3883C32.8391 32.3883 33.0571 32.4423 33.2491 32.5503C33.4451 32.6583 33.6011 32.8043 33.7171 32.9883C33.8331 33.1683 33.8911 33.3703 33.8911 33.5943C33.8911 33.7663 33.8571 33.9103 33.7891 34.0263C33.7211 34.1423 33.6391 34.2343 33.5431 34.3023C33.4471 34.3703 33.3551 34.4223 33.2671 34.4583ZM32.0131 33.6063C32.0131 33.7143 32.0371 33.8103 32.0851 33.8943C32.1371 33.9783 32.2071 34.0463 32.2951 34.0983C32.3831 34.1463 32.4831 34.1703 32.5951 34.1703C32.7071 34.1703 32.8051 34.1463 32.8891 34.0983C32.9771 34.0463 33.0451 33.9783 33.0931 33.8943C33.1451 33.8103 33.1711 33.7143 33.1711 33.6063C33.1711 33.4463 33.1151 33.3143 33.0031 33.2103C32.8951 33.1023 32.7591 33.0483 32.5951 33.0483C32.4271 33.0483 32.2871 33.1023 32.1751 33.2103C32.0671 33.3143 32.0131 33.4463 32.0131 33.6063ZM32.5951 35.9283C32.7871 35.9283 32.9491 35.8703 33.0811 35.7543C33.2131 35.6343 33.2791 35.4903 33.2791 35.3223C33.2791 35.2063 33.2491 35.1023 33.1891 35.0103C33.1291 34.9183 33.0471 34.8463 32.9431 34.7943C32.8391 34.7383 32.7231 34.7103 32.5951 34.7103C32.4671 34.7103 32.3511 34.7383 32.2471 34.7943C32.1431 34.8463 32.0611 34.9183 32.0011 35.0103C31.9411 35.1023 31.9111 35.2063 31.9111 35.3223C31.9111 35.4903 31.9771 35.6343 32.1091 35.7543C32.2411 35.8703 32.4031 35.9283 32.5951 35.9283Z" fill="#F4F6F9"/>
<path d="M35.9704 35.7423C36.0064 35.7423 36.0444 35.7483 36.0844 35.7603C36.1284 35.7723 36.1764 35.7963 36.2284 35.8323C36.2964 35.8843 36.3764 35.9303 36.4684 35.9703C36.5644 36.0103 36.6744 36.0303 36.7984 36.0303C36.9224 36.0303 37.0384 36.0003 37.1464 35.9403C37.2584 35.8763 37.3504 35.7883 37.4224 35.6763C37.4944 35.5603 37.5304 35.4223 37.5304 35.2623C37.5304 35.1103 37.4984 34.9843 37.4344 34.8843C37.3744 34.7843 37.2924 34.7083 37.1884 34.6563C37.0884 34.6043 36.9804 34.5783 36.8644 34.5783C36.7764 34.5783 36.7024 34.5863 36.6424 34.6023C36.5864 34.6183 36.5304 34.6363 36.4744 34.6563C36.4224 34.6723 36.3604 34.6803 36.2884 34.6803C36.1964 34.6803 36.1244 34.6483 36.0724 34.5843C36.0244 34.5203 36.0004 34.4443 36.0004 34.3563C36.0004 34.3003 36.0104 34.2503 36.0304 34.2063C36.0544 34.1623 36.0884 34.1143 36.1324 34.0623L37.1884 32.9103L37.3504 33.0483H35.8744C35.7784 33.0483 35.6984 33.0163 35.6344 32.9523C35.5704 32.8883 35.5384 32.8083 35.5384 32.7123C35.5384 32.6203 35.5704 32.5443 35.6344 32.4843C35.6984 32.4203 35.7784 32.3883 35.8744 32.3883H37.7104C37.8344 32.3883 37.9264 32.4223 37.9864 32.4903C38.0504 32.5583 38.0824 32.6443 38.0824 32.7483C38.0824 32.8003 38.0684 32.8503 38.0404 32.8983C38.0164 32.9463 37.9824 32.9923 37.9384 33.0363L36.8764 34.2063L36.7144 34.0023C36.7584 33.9823 36.8184 33.9643 36.8944 33.9483C36.9744 33.9323 37.0404 33.9243 37.0924 33.9243C37.3284 33.9243 37.5324 33.9863 37.7044 34.1103C37.8804 34.2303 38.0144 34.3883 38.1064 34.5843C38.2024 34.7763 38.2504 34.9843 38.2504 35.2083C38.2504 35.5043 38.1844 35.7603 38.0524 35.9763C37.9204 36.1923 37.7344 36.3583 37.4944 36.4743C37.2544 36.5903 36.9744 36.6483 36.6544 36.6483C36.5064 36.6483 36.3604 36.6303 36.2164 36.5943C36.0724 36.5583 35.9484 36.5103 35.8444 36.4503C35.7564 36.4023 35.6964 36.3503 35.6644 36.2943C35.6364 36.2343 35.6224 36.1783 35.6224 36.1263C35.6224 36.0343 35.6544 35.9483 35.7184 35.8683C35.7864 35.7843 35.8704 35.7423 35.9704 35.7423Z" fill="#F4F6F9"/>
<path d="M41.3352 36.6483C40.9912 36.6483 40.6992 36.5583 40.4592 36.3783C40.2232 36.1943 40.0432 35.9403 39.9192 35.6163C39.7952 35.2883 39.7332 34.9123 39.7332 34.4883C39.7332 34.0603 39.7952 33.6843 39.9192 33.3603C40.0432 33.0363 40.2232 32.7843 40.4592 32.6043C40.6992 32.4203 40.9912 32.3283 41.3352 32.3283C41.6792 32.3283 41.9692 32.4203 42.2052 32.6043C42.4452 32.7843 42.6272 33.0363 42.7512 33.3603C42.8752 33.6843 42.9372 34.0603 42.9372 34.4883C42.9372 34.9123 42.8752 35.2883 42.7512 35.6163C42.6272 35.9403 42.4452 36.1943 42.2052 36.3783C41.9692 36.5583 41.6792 36.6483 41.3352 36.6483ZM41.3352 35.9283C41.5032 35.9283 41.6472 35.8763 41.7672 35.7723C41.8912 35.6643 41.9872 35.5043 42.0552 35.2923C42.1232 35.0763 42.1572 34.8083 42.1572 34.4883C42.1572 34.1643 42.1232 33.8963 42.0552 33.6843C41.9872 33.4723 41.8912 33.3143 41.7672 33.2103C41.6472 33.1023 41.5032 33.0483 41.3352 33.0483C41.1712 33.0483 41.0272 33.1023 40.9032 33.2103C40.7792 33.3143 40.6832 33.4723 40.6152 33.6843C40.5472 33.8963 40.5132 34.1643 40.5132 34.4883C40.5132 34.8083 40.5472 35.0763 40.6152 35.2923C40.6832 35.5043 40.7792 35.6643 40.9032 35.7723C41.0272 35.8763 41.1712 35.9283 41.3352 35.9283Z" fill="#F4F6F9"/>
<path d="M45.5887 36.6483C45.4407 36.6483 45.2827 36.6263 45.1147 36.5823C44.9467 36.5343 44.8087 36.4663 44.7007 36.3783C44.6487 36.3343 44.6067 36.2783 44.5747 36.2103C44.5467 36.1383 44.5327 36.0703 44.5327 36.0063C44.5327 35.9383 44.5607 35.8743 44.6167 35.8143C44.6767 35.7543 44.7607 35.7243 44.8687 35.7243C44.9407 35.7243 45.0307 35.7623 45.1387 35.8383C45.2027 35.8783 45.2727 35.9143 45.3487 35.9463C45.4247 35.9783 45.5027 35.9943 45.5827 35.9943C45.7507 35.9943 45.9047 35.9563 46.0447 35.8803C46.1887 35.8043 46.3027 35.7023 46.3867 35.5743C46.4747 35.4463 46.5187 35.3083 46.5187 35.1603C46.5187 35.0083 46.4827 34.8783 46.4107 34.7703C46.3427 34.6623 46.2507 34.5783 46.1347 34.5183C46.0227 34.4583 45.9007 34.4283 45.7687 34.4283C45.6447 34.4283 45.5367 34.4483 45.4447 34.4883C45.3527 34.5283 45.2687 34.5703 45.1927 34.6143C45.1167 34.6543 45.0407 34.6743 44.9647 34.6743C44.8327 34.6743 44.7347 34.6463 44.6707 34.5903C44.6067 34.5303 44.5667 34.4603 44.5507 34.3803C44.5347 34.3003 44.5307 34.2283 44.5387 34.1643L44.7247 32.6763C44.7407 32.5923 44.7807 32.5243 44.8447 32.4723C44.9127 32.4163 44.9927 32.3883 45.0847 32.3883H46.8187C46.9147 32.3883 46.9947 32.4203 47.0587 32.4843C47.1227 32.5483 47.1547 32.6283 47.1547 32.7243C47.1547 32.8163 47.1227 32.8943 47.0587 32.9583C46.9947 33.0183 46.9147 33.0483 46.8187 33.0483H45.2707L45.3367 32.9943L45.1747 34.2423L45.0967 34.0143C45.1207 33.9743 45.1727 33.9363 45.2527 33.9003C45.3327 33.8643 45.4247 33.8343 45.5287 33.8103C45.6327 33.7823 45.7347 33.7683 45.8347 33.7683C46.1027 33.7683 46.3427 33.8303 46.5547 33.9543C46.7667 34.0743 46.9327 34.2403 47.0527 34.4523C47.1767 34.6603 47.2387 34.8963 47.2387 35.1603C47.2387 35.3683 47.1947 35.5623 47.1067 35.7423C47.0187 35.9223 46.8967 36.0803 46.7407 36.2163C46.5887 36.3523 46.4127 36.4583 46.2127 36.5343C46.0167 36.6103 45.8087 36.6483 45.5887 36.6483Z" fill="#F4F6F9"/>
<path d="M51.3533 35.9283C51.4493 35.9283 51.5293 35.9603 51.5933 36.0243C51.6573 36.0883 51.6893 36.1683 51.6893 36.2643C51.6893 36.3563 51.6573 36.4343 51.5933 36.4983C51.5293 36.5583 51.4493 36.5883 51.3533 36.5883H49.3133C49.2093 36.5883 49.1273 36.5563 49.0673 36.4923C49.0073 36.4283 48.9773 36.3463 48.9773 36.2463C48.9773 36.1463 49.0133 36.0583 49.0853 35.9823L50.3933 34.5843C50.5373 34.4283 50.6533 34.2703 50.7413 34.1103C50.8293 33.9463 50.8733 33.7943 50.8733 33.6543C50.8733 33.5303 50.8433 33.4183 50.7833 33.3183C50.7233 33.2183 50.6453 33.1383 50.5493 33.0783C50.4533 33.0183 50.3493 32.9883 50.2373 32.9883C50.1213 32.9883 50.0033 33.0283 49.8833 33.1083C49.7633 33.1843 49.6573 33.2863 49.5653 33.4143C49.5173 33.4783 49.4693 33.5183 49.4213 33.5343C49.3733 33.5503 49.3293 33.5583 49.2893 33.5583C49.2013 33.5583 49.1193 33.5263 49.0433 33.4623C48.9713 33.3943 48.9353 33.3163 48.9353 33.2283C48.9353 33.1603 48.9573 33.0943 49.0013 33.0303C49.0493 32.9663 49.1073 32.9003 49.1753 32.8323C49.3273 32.6803 49.5033 32.5583 49.7033 32.4663C49.9033 32.3743 50.0953 32.3283 50.2793 32.3283C50.5513 32.3283 50.7853 32.3843 50.9813 32.4963C51.1773 32.6083 51.3293 32.7623 51.4373 32.9583C51.5453 33.1543 51.5993 33.3763 51.5993 33.6243C51.5993 33.7923 51.5673 33.9643 51.5033 34.1403C51.4433 34.3123 51.3593 34.4803 51.2513 34.6443C51.1433 34.8083 51.0193 34.9663 50.8793 35.1183L50.0693 35.9823L50.0033 35.9283H51.3533Z" fill="#F4F6F9"/>
<path d="M55.3061 34.4583L55.2941 34.3203C55.4461 34.3883 55.5781 34.4763 55.6901 34.5843C55.8021 34.6923 55.8881 34.8103 55.9481 34.9383C56.0081 35.0663 56.0381 35.1983 56.0381 35.3343C56.0381 35.5623 55.9741 35.7723 55.8461 35.9643C55.7221 36.1523 55.5541 36.3043 55.3421 36.4203C55.1301 36.5323 54.8941 36.5883 54.6341 36.5883C54.3741 36.5883 54.1381 36.5323 53.9261 36.4203C53.7141 36.3043 53.5441 36.1523 53.4161 35.9643C53.2921 35.7723 53.2301 35.5623 53.2301 35.3343C53.2301 35.1503 53.2681 34.9923 53.3441 34.8603C53.4241 34.7243 53.5221 34.6103 53.6381 34.5183C53.7581 34.4263 53.8761 34.3503 53.9921 34.2903L53.9441 34.4583C53.8441 34.4183 53.7461 34.3623 53.6501 34.2903C53.5581 34.2143 53.4821 34.1183 53.4221 34.0023C53.3621 33.8863 53.3321 33.7503 53.3321 33.5943C53.3321 33.3703 53.3901 33.1683 53.5061 32.9883C53.6221 32.8043 53.7781 32.6583 53.9741 32.5503C54.1741 32.4423 54.3941 32.3883 54.6341 32.3883C54.8781 32.3883 55.0961 32.4423 55.2881 32.5503C55.4841 32.6583 55.6401 32.8043 55.7561 32.9883C55.8721 33.1683 55.9301 33.3703 55.9301 33.5943C55.9301 33.7663 55.8961 33.9103 55.8281 34.0263C55.7601 34.1423 55.6781 34.2343 55.5821 34.3023C55.4861 34.3703 55.3941 34.4223 55.3061 34.4583ZM54.0521 33.6063C54.0521 33.7143 54.0761 33.8103 54.1241 33.8943C54.1761 33.9783 54.2461 34.0463 54.3341 34.0983C54.4221 34.1463 54.5221 34.1703 54.6341 34.1703C54.7461 34.1703 54.8441 34.1463 54.9281 34.0983C55.0161 34.0463 55.0841 33.9783 55.1321 33.8943C55.1841 33.8103 55.2101 33.7143 55.2101 33.6063C55.2101 33.4463 55.1541 33.3143 55.0421 33.2103C54.9341 33.1023 54.7981 33.0483 54.6341 33.0483C54.4661 33.0483 54.3261 33.1023 54.2141 33.2103C54.1061 33.3143 54.0521 33.4463 54.0521 33.6063ZM54.6341 35.9283C54.8261 35.9283 54.9881 35.8703 55.1201 35.7543C55.2521 35.6343 55.3181 35.4903 55.3181 35.3223C55.3181 35.2063 55.2881 35.1023 55.2281 35.0103C55.1681 34.9183 55.0861 34.8463 54.9821 34.7943C54.8781 34.7383 54.7621 34.7103 54.6341 34.7103C54.5061 34.7103 54.3901 34.7383 54.2861 34.7943C54.1821 34.8463 54.1001 34.9183 54.0401 35.0103C53.9801 35.1023 53.9501 35.2063 53.9501 35.3223C53.9501 35.4903 54.0161 35.6343 54.1481 35.7543C54.2801 35.8703 54.4421 35.9283 54.6341 35.9283Z" fill="#F4F6F9"/>
<path d="M58.7355 36.5883C58.6235 36.5883 58.5315 36.5543 58.4595 36.4863C58.3875 36.4143 58.3515 36.3263 58.3515 36.2223V33.1983L58.4355 33.3303L57.9795 33.6063C57.9195 33.6423 57.8555 33.6603 57.7875 33.6603C57.6835 33.6603 57.5975 33.6223 57.5295 33.5463C57.4615 33.4663 57.4275 33.3823 57.4275 33.2943C57.4275 33.1583 57.4895 33.0543 57.6135 32.9823L58.5195 32.4423C58.5875 32.4063 58.6735 32.3883 58.7775 32.3883C58.8815 32.3883 58.9655 32.4243 59.0295 32.4963C59.0975 32.5643 59.1315 32.6503 59.1315 32.7543V36.2223C59.1315 36.3263 59.0935 36.4143 59.0175 36.4863C58.9455 36.5543 58.8515 36.5883 58.7355 36.5883Z" fill="#F4F6F9"/>
<path d="M61.417 32.3883C61.513 32.3883 61.597 32.4243 61.669 32.4963C61.745 32.5643 61.783 32.6503 61.783 32.7543V36.2223C61.783 36.3263 61.745 36.4143 61.669 36.4863C61.593 36.5543 61.505 36.5883 61.405 36.5883C61.293 36.5883 61.203 36.5543 61.135 36.4863C61.067 36.4143 61.033 36.3263 61.033 36.2223V32.7543C61.033 32.6503 61.069 32.5643 61.141 32.4963C61.213 32.4243 61.305 32.3883 61.417 32.3883ZM64.075 32.3883C64.187 32.3883 64.277 32.4243 64.345 32.4963C64.413 32.5643 64.447 32.6503 64.447 32.7543V36.2223C64.447 36.3263 64.411 36.4143 64.339 36.4863C64.271 36.5543 64.179 36.5883 64.063 36.5883C63.967 36.5883 63.881 36.5543 63.805 36.4863C63.733 36.4143 63.697 36.3263 63.697 36.2223V32.7543C63.697 32.6503 63.735 32.5643 63.811 32.4963C63.887 32.4243 63.975 32.3883 64.075 32.3883ZM61.399 34.1343H64.075V34.8243H61.399V34.1343Z" fill="#F4F6F9"/>
<path d="M67.7375 36.6483C67.3935 36.6483 67.1015 36.5583 66.8615 36.3783C66.6255 36.1943 66.4455 35.9403 66.3215 35.6163C66.1975 35.2883 66.1355 34.9123 66.1355 34.4883C66.1355 34.0603 66.1975 33.6843 66.3215 33.3603C66.4455 33.0363 66.6255 32.7843 66.8615 32.6043C67.1015 32.4203 67.3935 32.3283 67.7375 32.3283C68.0815 32.3283 68.3715 32.4203 68.6075 32.6043C68.8475 32.7843 69.0295 33.0363 69.1535 33.3603C69.2775 33.6843 69.3395 34.0603 69.3395 34.4883C69.3395 34.9123 69.2775 35.2883 69.1535 35.6163C69.0295 35.9403 68.8475 36.1943 68.6075 36.3783C68.3715 36.5583 68.0815 36.6483 67.7375 36.6483ZM67.7375 35.9283C67.9055 35.9283 68.0495 35.8763 68.1695 35.7723C68.2935 35.6643 68.3895 35.5043 68.4575 35.2923C68.5255 35.0763 68.5595 34.8083 68.5595 34.4883C68.5595 34.1643 68.5255 33.8963 68.4575 33.6843C68.3895 33.4723 68.2935 33.3143 68.1695 33.2103C68.0495 33.1023 67.9055 33.0483 67.7375 33.0483C67.5735 33.0483 67.4295 33.1023 67.3055 33.2103C67.1815 33.3143 67.0855 33.4723 67.0175 33.6843C66.9495 33.8963 66.9155 34.1643 66.9155 34.4883C66.9155 34.8083 66.9495 35.0763 67.0175 35.2923C67.0855 35.5043 67.1815 35.6643 67.3055 35.7723C67.4295 35.8763 67.5735 35.9283 67.7375 35.9283Z" fill="#F4F6F9"/>
</g>
<path d="M40 56.4707L40 65.8825" stroke="#002A61" stroke-width="4" stroke-miterlimit="10" stroke-linecap="round"/>
<path d="M24.6875 67.4512H55.3125" stroke="#81C1EA" stroke-width="4" stroke-miterlimit="10" stroke-linecap="round"/>
<path d="M40 55.9375H10.5417C7.47917 55.9375 5 53.4971 5 50.4824V15.4551C5 12.4404 7.47917 10 10.5417 10H40" stroke="#81C1EA" stroke-width="4" stroke-miterlimit="10" stroke-linecap="round"/>
<path d="M40 10H69.4583C72.5208 10 75 12.4404 75 15.4551V50.4824C75 53.4971 72.5208 55.9375 69.4583 55.9375H40" stroke="white" stroke-width="4" stroke-miterlimit="10" stroke-linecap="round"/>
<path d="M20.313 55.9375H57.5005" stroke="#81C1EA" stroke-width="4" stroke-miterlimit="10" stroke-linecap="round"/>
<circle cx="16.8104" cy="17.6994" r="2.01307" fill="white"/>
<circle cx="12.2094" cy="22.3007" r="2.01307" fill="white"/>
<circle cx="12.2094" cy="17.6994" r="2.01307" fill="white"/>
<circle cx="16.8104" cy="22.3007" r="2.01307" fill="white"/>
</svg>
