<svg width="80" height="80" viewBox="0 0 80 80" fill="none" xmlns="http://www.w3.org/2000/svg">
<path d="M53.4208 71.9995H13.0777C10.2724 71.9995 8.00146 69.7433 8.00146 66.9562V21.3009C8.00146 18.5138 10.2724 16.2575 13.0777 16.2575H40.0622" stroke="#81C1EA" stroke-width="4" stroke-miterlimit="10" stroke-linecap="round"/>
<path d="M26.5811 16.2575H66.9241C69.7294 16.2575 72.0004 18.5138 72.0004 21.3009V66.9562C72.0004 69.7433 69.7294 71.9995 66.9241 71.9995H39.9397" stroke="#225AA7" stroke-width="4" stroke-miterlimit="10" stroke-linecap="round"/>
<path d="M20.6826 35.2537H26.1071" stroke="#225AA7" stroke-width="4" stroke-miterlimit="10" stroke-linecap="round"/>
<path d="M37.5669 35.2537H42.9913" stroke="#225AA7" stroke-width="4" stroke-miterlimit="10" stroke-linecap="round"/>
<path d="M55.6567 35.2537H61.0812" stroke="#225AA7" stroke-width="4" stroke-miterlimit="10" stroke-linecap="round"/>
<path d="M20.6826 47.6135H26.1071" stroke="#225AA7" stroke-width="4" stroke-miterlimit="10" stroke-linecap="round"/>
<path d="M37.5669 47.6135H42.9913" stroke="#225AA7" stroke-width="4" stroke-miterlimit="10" stroke-linecap="round"/>
<path d="M55.6567 47.6135H61.0812" stroke="#225AA7" stroke-width="4" stroke-miterlimit="10" stroke-linecap="round"/>
<path d="M20.3394 61.0164H25.7638" stroke="#225AA7" stroke-width="4" stroke-miterlimit="10" stroke-linecap="round"/>
<path d="M37.5669 59.6735H42.9913" stroke="#225AA7" stroke-width="4" stroke-miterlimit="10" stroke-linecap="round"/>
<path d="M55.5938 61.0164H61.0182" stroke="#225AA7" stroke-width="4" stroke-miterlimit="10" stroke-linecap="round"/>
<path d="M24.5171 7.99988V24.516" stroke="#FFBE12" stroke-width="4" stroke-miterlimit="10" stroke-linecap="round"/>
<path d="M55.4839 7.99988V24.516" stroke="#FFBE12" stroke-width="4" stroke-miterlimit="10" stroke-linecap="round"/>
<path d="M67.1524 47.4569C67.1524 52.3432 63.1913 56.3043 58.305 56.3043C53.4187 56.3043 49.4575 52.3432 49.4575 47.4569C49.4575 42.5705 53.4187 38.6094 58.305 38.6094C63.1913 38.6094 67.1524 42.5705 67.1524 47.4569Z" stroke="#81C1EA" stroke-width="4"/>
</svg>
