<svg width="18" height="23" viewBox="0 0 18 23" fill="none" xmlns="http://www.w3.org/2000/svg">
<path fill-rule="evenodd" clip-rule="evenodd" d="M8.31134 0C5.77553 0 3.73608 2.05479 3.73608 4.59103V6.93362H2.36082C1.04975 6.93362 0 7.99435 0 9.30045V16.9174C0 18.5281 1.00135 19.9673 2.50091 20.5363C2.50697 20.5386 2.51304 20.5409 2.51912 20.543L6.93082 22.1892L6.93295 22.19C8.11225 22.6356 9.41373 22.6356 10.593 22.19L10.5952 22.1892L15.0158 20.5397L15.018 20.5389C16.5309 19.9807 17.5259 18.5204 17.5259 16.9174V10.9282C17.5259 10.8743 17.5216 10.8213 17.5134 10.7698V9.30045C17.5134 7.99435 16.4636 6.93362 15.1526 6.93362H13.7897V4.59103C13.7897 2.05479 11.7502 0 9.21443 0H8.31134ZM15.5259 11.0866C15.5177 11.035 15.5134 10.9821 15.5134 10.9282V9.30045C15.5134 9.09061 15.3508 8.93362 15.1526 8.93362H2.36082C2.16262 8.93362 2 9.09061 2 9.30045V16.9174C2 17.6888 2.47865 18.3839 3.20017 18.6625C3.20191 18.6631 3.20364 18.6638 3.20537 18.6644L7.63424 20.317L7.63846 20.3186C8.36304 20.5927 9.16294 20.5927 9.88753 20.3186L9.89174 20.317L14.3206 18.6644L14.3246 18.6629C15.0373 18.4005 15.5259 17.6993 15.5259 16.9174V11.0866ZM5.73608 4.59103C5.73608 3.15105 6.88839 2 8.31134 2H9.21443C10.6374 2 11.7897 3.15105 11.7897 4.59103V6.93355H5.73608V4.59103ZM9.7691 13.1275C9.7691 12.5752 9.32139 12.1275 8.7691 12.1275C8.21682 12.1275 7.7691 12.5752 7.7691 13.1275V16.5943C7.7691 17.1466 8.21682 17.5943 8.7691 17.5943C9.32139 17.5943 9.7691 17.1466 9.7691 16.5943V13.1275Z" fill="#225AA7"/>
</svg>
