<svg width="16" height="16" viewBox="0 0 16 16" fill="none" xmlns="http://www.w3.org/2000/svg">
<path fill-rule="evenodd" clip-rule="evenodd" d="M10.149 12.1597C9.97 12.4463 9.59255 12.5336 9.30595 12.3546C9.01934 12.1756 8.9321 11.7982 9.11109 11.5116L11.3994 7.84738L9.11109 4.1832C8.9321 3.89659 9.01934 3.51915 9.30594 3.34016C9.59255 3.16117 9.96999 3.24841 10.149 3.53502L12.6397 7.52329C12.7636 7.7216 12.7636 7.97316 12.6397 8.17147L10.149 12.1597ZM5.12592 3.53502C5.30491 3.24841 5.68235 3.16117 5.96896 3.34016C6.25556 3.51915 6.3428 3.89659 6.16381 4.1832L3.87548 7.84738L6.16381 11.5116C6.34281 11.7982 6.25556 12.1756 5.96896 12.3546C5.68235 12.5336 5.30491 12.4463 5.12592 12.1597L2.63518 8.17147C2.51134 7.97316 2.51134 7.7216 2.63518 7.52329L5.12592 3.53502Z" fill="#AAAAAA"/>
</svg>
