<svg width="24" height="24" viewBox="0 0 24 24" fill="none" xmlns="http://www.w3.org/2000/svg">
<path d="M14.4657 20.9267L14.5162 19.9279H14.5162L14.4657 20.9267ZM9.53426 20.9267L9.48385 19.9279H9.48385L9.53426 20.9267ZM14 7C14 8.78646 12.7595 10 11.5 10V12C14.1065 12 16 9.63182 16 7H14ZM11.5 4C12.7595 4 14 5.21354 14 7H16C16 4.36818 14.1065 2 11.5 2V4ZM9 7C9 5.21354 10.2405 4 11.5 4V2C8.89347 2 7 4.36818 7 7H9ZM11.5 10C10.2405 10 9 8.78646 9 7H7C7 9.63182 8.89347 12 11.5 12V10ZM19 19.019C19 19.3574 18.9097 19.492 18.8394 19.5645C18.7444 19.6624 18.5467 19.7839 18.1421 19.8732C17.2954 20.0599 16.07 20.0064 14.5162 19.9279L14.4153 21.9254C15.8604 21.9983 17.4021 22.0844 18.5728 21.8262C19.1769 21.693 19.8005 21.4459 20.2746 20.9574C20.7733 20.4435 21 19.774 21 19.019H19ZM12 15C13.7895 15 15.6101 15.5161 16.9571 16.3268C18.3415 17.16 19 18.1492 19 19.019H21C21 17.1168 19.6222 15.5965 17.9884 14.6132C16.3173 13.6074 14.1378 13 12 13V15ZM5 19.019C5 18.1492 5.65851 17.16 7.04291 16.3268C8.38994 15.5161 10.2105 15 12 15V13C9.86218 13 7.6827 13.6074 6.01157 14.6132C4.37782 15.5965 3 17.1168 3 19.019H5ZM9.48385 19.9279C7.93003 20.0064 6.70461 20.0599 5.85791 19.8732C5.4533 19.7839 5.25559 19.6624 5.16061 19.5645C5.09027 19.492 5 19.3574 5 19.019H3C3 19.774 3.22665 20.4435 3.7254 20.9574C4.19951 21.4459 4.82307 21.693 5.42716 21.8262C6.59785 22.0844 8.13957 21.9983 9.58467 21.9254L9.48385 19.9279ZM12 19.844C11.1419 19.844 10.2817 19.8877 9.48385 19.9279L9.58467 21.9254C10.3908 21.8847 11.2007 21.844 12 21.844V19.844ZM14.5162 19.9279C13.7183 19.8877 12.8581 19.844 12 19.844V21.844C12.7993 21.844 13.6092 21.8847 14.4153 21.9254L14.5162 19.9279Z" fill="#225AA7"/>
</svg>
