<svg width="30" height="22" viewBox="0 0 30 22" fill="none" xmlns="http://www.w3.org/2000/svg">
<path d="M0.671356 18.1323C1.28343 20.3169 3.15589 20.7166 3.28081 20.7933C6.36243 21.638 23.6355 21.6405 26.7634 20.7933C28.9056 20.1698 29.2991 18.258 29.3728 18.1323C30.1885 13.7656 30.2422 8.07288 29.3354 3.11795L29.3728 3.36431C28.7607 1.17972 26.8883 0.780009 26.7634 0.703335C23.723 -0.127514 6.4049 -0.158938 3.28081 0.703335C1.13853 1.32804 0.745055 3.23862 0.671356 3.36431C-0.201792 7.95346 -0.245512 13.2189 0.671356 18.1323ZM12.021 15.3381V6.1711L19.8481 10.7615L12.021 15.3381Z" fill="white"/>
</svg>
